<svg width="218" height="75" viewBox="0 0 218 75" fill="none" xmlns="http://www.w3.org/2000/svg">
<g filter="url(#filter0_i_80_2)">
<path d="M0.289244 24.3953H3.26599V27.3721H0.289244V24.3953ZM3.26599 24.3953H6.24273V27.3721H3.26599V24.3953ZM3.26599 27.3721H6.24273V30.3488H3.26599V27.3721ZM6.24273 21.4186H9.21948V24.3953H6.24273V21.4186ZM6.24273 18.4419H9.21948V21.4186H6.24273V18.4419ZM9.21948 18.4419H12.1962V21.4186H9.21948V18.4419ZM9.21948 21.4186H12.1962V24.3953H9.21948V21.4186ZM0.289244 27.3721H3.26599V30.3488H0.289244V27.3721ZM6.24273 24.3953H9.21948V27.3721H6.24273V24.3953ZM9.21948 24.3953H12.1962V27.3721H9.21948V24.3953ZM9.21948 27.3721H12.1962V30.3488H9.21948V27.3721ZM6.24273 27.3721H9.21948V30.3488H6.24273V27.3721ZM6.24273 15.4651H9.21948V18.4419H6.24273V15.4651ZM6.24273 12.4884H9.21948V15.4651H6.24273V12.4884ZM9.21948 12.4884H12.1962V15.4651H9.21948V12.4884ZM9.21948 15.4651H12.1962V18.4419H9.21948V15.4651ZM12.1962 9.51163H15.173V12.4884H12.1962V9.51163ZM12.1962 6.53488H15.173V9.51163H12.1962V6.53488ZM18.1497 0.581398H21.1265V3.55814H18.1497V0.581398ZM21.1265 0.581398H24.1032V3.55814H21.1265V0.581398ZM6.24273 30.3488H9.21948V33.3256H6.24273V30.3488ZM9.21948 30.3488H12.1962V33.3256H9.21948V30.3488ZM9.21948 33.3256H12.1962V36.3023H9.21948V33.3256ZM6.24273 33.3256H9.21948V36.3023H6.24273V33.3256ZM6.24273 36.3023H9.21948V39.2791H6.24273V36.3023ZM9.21948 36.3023H12.1962V39.2791H9.21948V36.3023ZM9.21948 39.2791H12.1962V42.2558H9.21948V39.2791ZM6.24273 39.2791H9.21948V42.2558H6.24273V39.2791ZM6.24273 42.2558H9.21948V45.2326H6.24273V42.2558ZM9.21948 42.2558H12.1962V45.2326H9.21948V42.2558ZM9.21948 45.2326H12.1962V48.2093H9.21948V45.2326ZM6.24273 45.2326H9.21948V48.2093H6.24273V45.2326ZM6.24273 48.2093H9.21948V51.186H6.24273V48.2093ZM9.21948 48.2093H12.1962V51.186H9.21948V48.2093ZM9.21948 51.186H12.1962V54.1628H9.21948V51.186ZM6.24273 51.186H9.21948V54.1628H6.24273V51.186ZM0.289244 30.3488H3.26599V33.3256H0.289244V30.3488ZM3.26599 30.3488H6.24273V33.3256H3.26599V30.3488ZM3.26599 33.3256H6.24273V36.3023H3.26599V33.3256ZM0.289244 33.3256H3.26599V36.3023H0.289244V33.3256ZM0.289244 36.3023H3.26599V39.2791H0.289244V36.3023ZM3.26599 36.3023H6.24273V39.2791H3.26599V36.3023ZM3.26599 39.2791H6.24273V42.2558H3.26599V39.2791ZM0.289244 39.2791H3.26599V42.2558H0.289244V39.2791ZM0.289244 42.2558H3.26599V45.2326H0.289244V42.2558ZM3.26599 42.2558H6.24273V45.2326H3.26599V42.2558ZM3.26599 45.2326H6.24273V48.2093H3.26599V45.2326ZM0.289244 45.2326H3.26599V48.2093H0.289244V45.2326ZM0.289244 48.2093H3.26599V51.186H0.289244V48.2093ZM3.26599 48.2093H6.24273V51.186H3.26599V48.2093ZM3.26599 51.186H6.24273V54.1628H3.26599V51.186ZM0.289244 51.186H3.26599V54.1628H0.289244V51.186ZM18.1497 24.3953H21.1265V27.3721H18.1497V24.3953ZM21.1265 24.3953H24.1032V27.3721H21.1265V24.3953ZM21.1265 27.3721H24.1032V30.3488H21.1265V27.3721ZM18.1497 27.3721H21.1265V30.3488H18.1497V27.3721ZM24.1032 24.3953H27.0799V27.3721H24.1032V24.3953ZM27.0799 27.3721H30.0567V30.3488H27.0799V27.3721ZM24.1032 27.3721H27.0799V30.3488H24.1032V27.3721ZM27.0799 24.3953H30.0567V27.3721H27.0799V24.3953ZM21.1265 36.3023H24.1032V39.2791H21.1265V36.3023ZM18.1497 36.3023H21.1265V39.2791H18.1497V36.3023ZM18.1497 39.2791H21.1265V42.2558H18.1497V39.2791ZM21.1265 39.2791H24.1032V42.2558H21.1265V39.2791ZM27.0799 36.3023H30.0567V39.2791H27.0799V36.3023ZM24.1032 36.3023H27.0799V39.2791H24.1032V36.3023ZM27.0799 39.2791H30.0567V42.2558H27.0799V39.2791ZM24.1032 39.2791H27.0799V42.2558H24.1032V39.2791ZM30.0567 24.3953H33.0334V27.3721H30.0567V24.3953ZM33.0334 24.3953H36.0102V27.3721H33.0334V24.3953ZM33.0334 27.3721H36.0102V30.3488H33.0334V27.3721ZM33.0334 30.3488H36.0102V33.3256H33.0334V30.3488ZM33.0334 33.3256H36.0102V36.3023H33.0334V33.3256ZM33.0334 36.3023H36.0102V39.2791H33.0334V36.3023ZM33.0334 39.2791H36.0102V42.2558H33.0334V39.2791ZM30.0567 39.2791H33.0334V42.2558H30.0567V39.2791ZM30.0567 36.3023H33.0334V39.2791H30.0567V36.3023ZM30.0567 33.3256H33.0334V36.3023H30.0567V33.3256ZM30.0567 30.3488H33.0334V33.3256H30.0567V30.3488ZM30.0567 27.3721H33.0334V30.3488H30.0567V27.3721ZM30.0567 21.4186H33.0334V24.3953H30.0567V21.4186ZM30.0567 18.4419H33.0334V21.4186H30.0567V18.4419ZM33.0334 18.4419H36.0102V21.4186H33.0334V18.4419ZM33.0334 21.4186H36.0102V24.3953H33.0334V21.4186ZM33.0334 15.4651H36.0102V18.4419H33.0334V15.4651ZM33.0334 12.4884H36.0102V15.4651H33.0334V12.4884ZM30.0567 12.4884H33.0334V15.4651H30.0567V12.4884ZM30.0567 15.4651H33.0334V18.4419H30.0567V15.4651ZM30.0567 42.2558H33.0334V45.2326H30.0567V42.2558ZM33.0334 42.2558H36.0102V45.2326H33.0334V42.2558ZM33.0334 45.2326H36.0102V48.2093H33.0334V45.2326ZM30.0567 45.2326H33.0334V48.2093H30.0567V45.2326ZM30.0567 48.2093H33.0334V51.186H30.0567V48.2093ZM33.0334 48.2093H36.0102V51.186H33.0334V48.2093ZM33.0334 51.186H36.0102V54.1628H33.0334V51.186ZM30.0567 51.186H33.0334V54.1628H30.0567V51.186ZM36.0102 9.51163H38.9869V12.4884H36.0102V9.51163ZM36.0102 6.53488H38.9869V9.51163H36.0102V6.53488ZM38.9869 6.53488H41.9637V9.51163H38.9869V6.53488ZM38.9869 9.51163H41.9637V12.4884H38.9869V9.51163ZM38.9869 12.4884H41.9637V15.4651H38.9869V12.4884ZM36.0102 12.4884H38.9869V15.4651H36.0102V12.4884ZM36.0102 15.4651H38.9869V18.4419H36.0102V15.4651ZM36.0102 18.4419H38.9869V21.4186H36.0102V18.4419ZM38.9869 15.4651H41.9637V18.4419H38.9869V15.4651ZM38.9869 18.4419H41.9637V21.4186H38.9869V18.4419ZM38.9869 21.4186H41.9637V24.3953H38.9869V21.4186ZM38.9869 24.3953H41.9637V27.3721H38.9869V24.3953ZM36.0102 27.3721H38.9869V30.3488H36.0102V27.3721ZM36.0102 30.3488H38.9869V33.3256H36.0102V30.3488ZM36.0102 33.3256H38.9869V36.3023H36.0102V33.3256ZM36.0102 21.4186H38.9869V24.3953H36.0102V21.4186ZM36.0102 24.3953H38.9869V27.3721H36.0102V24.3953ZM38.9869 27.3721H41.9637V30.3488H38.9869V27.3721ZM38.9869 30.3488H41.9637V33.3256H38.9869V30.3488ZM38.9869 33.3256H41.9637V36.3023H38.9869V33.3256ZM36.0102 36.3023H38.9869V39.2791H36.0102V36.3023ZM36.0102 39.2791H38.9869V42.2558H36.0102V39.2791ZM38.9869 39.2791H41.9637V42.2558H38.9869V39.2791ZM38.9869 36.3023H41.9637V39.2791H38.9869V36.3023ZM38.9869 42.2558H41.9637V45.2326H38.9869V42.2558ZM38.9869 45.2326H41.9637V48.2093H38.9869V45.2326ZM36.0102 45.2326H38.9869V48.2093H36.0102V45.2326ZM36.0102 42.2558H38.9869V45.2326H36.0102V42.2558ZM36.0102 48.2093H38.9869V51.186H36.0102V48.2093ZM38.9869 48.2093H41.9637V51.186H38.9869V48.2093ZM38.9869 51.186H41.9637V54.1628H38.9869V51.186ZM36.0102 51.186H38.9869V54.1628H36.0102V51.186ZM33.0334 54.1628H36.0102V57.1395H33.0334V54.1628ZM30.0567 54.1628H33.0334V57.1395H30.0567V54.1628ZM30.0567 57.1395H33.0334V60.1163H30.0567V57.1395ZM33.0334 57.1395H36.0102V60.1163H33.0334V57.1395ZM27.0799 57.1395H30.0567V60.1163H27.0799V57.1395ZM24.1032 57.1395H27.0799V60.1163H24.1032V57.1395ZM27.0799 54.1628H30.0567V57.1395H27.0799V54.1628ZM9.21948 54.1628H12.1962V57.1395H9.21948V54.1628ZM6.24273 54.1628H9.21948V57.1395H6.24273V54.1628ZM6.24273 57.1395H9.21948V60.1163H6.24273V57.1395ZM9.21948 57.1395H12.1962V60.1163H9.21948V57.1395ZM21.1265 3.55814H24.1032V6.53488H21.1265V3.55814ZM18.1497 3.55814H21.1265V6.53488H18.1497V3.55814ZM15.173 6.53488H18.1497V9.51163H15.173V6.53488ZM15.173 9.51163H18.1497V12.4884H15.173V9.51163ZM12.1962 57.1395H15.173V60.1163H12.1962V57.1395ZM6.24273 60.1163H9.21948V63.093H6.24273V60.1163ZM9.21948 60.1163H12.1962V63.093H9.21948V60.1163ZM12.1962 60.1163H15.173V63.093H12.1962V60.1163ZM15.173 60.1163H18.1497V63.093H15.173V60.1163ZM18.1497 63.093H21.1265V66.0698H18.1497V63.093ZM15.173 63.093H18.1497V66.0698H15.173V63.093ZM12.1962 63.093H15.173V66.0698H12.1962V63.093ZM9.21948 63.093H12.1962V66.0698H9.21948V63.093ZM18.1497 66.0698H21.1265V69.0465H18.1497V66.0698ZM21.1265 66.0698H24.1032V69.0465H21.1265V66.0698ZM21.1265 69.0465H24.1032V72.0233H21.1265V69.0465ZM18.1497 69.0465H21.1265V72.0233H18.1497V69.0465ZM24.1032 66.0698H27.0799V69.0465H24.1032V66.0698ZM27.0799 66.0698H30.0567V69.0465H27.0799V66.0698ZM27.0799 69.0465H30.0567V72.0233H27.0799V69.0465ZM24.1032 69.0465H27.0799V72.0233H24.1032V69.0465ZM30.0567 66.0698H33.0334V69.0465H30.0567V66.0698ZM33.0334 66.0698H36.0102V69.0465H33.0334V66.0698ZM33.0334 69.0465H36.0102V72.0233H33.0334V69.0465ZM30.0567 69.0465H33.0334V72.0233H30.0567V69.0465ZM36.0102 66.0698H38.9869V69.0465H36.0102V66.0698ZM38.9869 66.0698H41.9637V69.0465H38.9869V66.0698ZM38.9869 69.0465H41.9637V72.0233H38.9869V69.0465ZM36.0102 69.0465H38.9869V72.0233H36.0102V69.0465ZM41.9637 66.0698H44.9404V69.0465H41.9637V66.0698ZM44.9404 66.0698H47.9172V69.0465H44.9404V66.0698ZM44.9404 69.0465H47.9172V72.0233H44.9404V69.0465ZM41.9637 69.0465H44.9404V72.0233H41.9637V69.0465ZM47.9172 66.0698H50.8939V69.0465H47.9172V66.0698ZM50.8939 66.0698H53.8706V69.0465H50.8939V66.0698ZM47.9172 51.186H50.8939V54.1628H47.9172V51.186ZM50.8939 51.186H53.8706V54.1628H50.8939V51.186ZM50.8939 48.2093H53.8706V51.186H50.8939V48.2093ZM47.9172 48.2093H50.8939V51.186H47.9172V48.2093ZM47.9172 45.2326H50.8939V48.2093H47.9172V45.2326ZM47.9172 42.2558H50.8939V45.2326H47.9172V42.2558ZM47.9172 39.2791H50.8939V42.2558H47.9172V39.2791ZM47.9172 36.3023H50.8939V39.2791H47.9172V36.3023ZM50.8939 36.3023H53.8706V39.2791H50.8939V36.3023ZM50.8939 33.3256H53.8706V36.3023H50.8939V33.3256ZM50.8939 39.2791H53.8706V42.2558H50.8939V39.2791ZM50.8939 42.2558H53.8706V45.2326H50.8939V42.2558ZM50.8939 45.2326H53.8706V48.2093H50.8939V45.2326ZM47.9172 33.3256H50.8939V36.3023H47.9172V33.3256ZM47.9172 30.3488H50.8939V33.3256H47.9172V30.3488ZM47.9172 27.3721H50.8939V30.3488H47.9172V27.3721ZM47.9172 24.3953H50.8939V27.3721H47.9172V24.3953ZM50.8939 24.3953H53.8706V27.3721H50.8939V24.3953ZM50.8939 27.3721H53.8706V30.3488H50.8939V27.3721ZM50.8939 30.3488H53.8706V33.3256H50.8939V30.3488ZM47.9172 21.4186H50.8939V24.3953H47.9172V21.4186ZM47.9172 18.4419H50.8939V21.4186H47.9172V18.4419ZM50.8939 18.4419H53.8706V21.4186H50.8939V18.4419ZM50.8939 21.4186H53.8706V24.3953H50.8939V21.4186ZM41.9637 3.55814H44.9404V6.53488H41.9637V3.55814ZM41.9637 0.581398H44.9404V3.55814H41.9637V0.581398ZM44.9404 0.581398H47.9172V3.55814H44.9404V0.581398ZM44.9404 3.55814H47.9172V6.53488H44.9404V3.55814ZM50.8939 3.55814H53.8706V6.53488H50.8939V3.55814ZM47.9172 3.55814H50.8939V6.53488H47.9172V3.55814ZM47.9172 0.581398H50.8939V3.55814H47.9172V0.581398ZM50.8939 6.53488H53.8706V9.51163H50.8939V6.53488ZM47.9172 6.53488H50.8939V9.51163H47.9172V6.53488ZM47.9172 9.51163H50.8939V12.4884H47.9172V9.51163ZM50.8939 9.51163H53.8706V12.4884H50.8939V9.51163ZM53.8706 6.53488H56.8474V9.51163H53.8706V6.53488ZM56.8474 6.53488H59.8241V9.51163H56.8474V6.53488ZM56.8474 9.51163H59.8241V12.4884H56.8474V9.51163ZM53.8706 9.51163H56.8474V12.4884H53.8706V9.51163ZM59.8241 3.55814H62.8009V6.53488H59.8241V3.55814ZM62.8009 0.581398H65.7776V3.55814H62.8009V0.581398ZM62.8009 3.55814H65.7776V6.53488H62.8009V3.55814ZM53.8706 63.093H56.8474V66.0698H53.8706V63.093ZM56.8474 60.1163H59.8241V63.093H56.8474V60.1163ZM56.8474 63.093H59.8241V66.0698H56.8474V63.093ZM59.8241 57.1395H62.8009V60.1163H59.8241V57.1395ZM15.173 3.55814H18.1497V6.53488H15.173V3.55814ZM18.1497 6.53488H21.1265V9.51163H18.1497V6.53488ZM9.21948 9.51163H12.1962V12.4884H9.21948V9.51163ZM12.1962 12.4884H15.173V15.4651H12.1962V12.4884ZM3.26599 18.4419H6.24273V21.4186H3.26599V18.4419ZM3.26599 21.4186H6.24273V24.3953H3.26599V21.4186ZM15.173 66.0698H18.1497V69.0465H15.173V66.0698ZM3.26599 54.1628H6.24273V57.1395H3.26599V54.1628ZM12.1962 66.0698H15.173V69.0465H12.1962V66.0698ZM15.173 69.0465H18.1497V72.0233H15.173V69.0465ZM59.8241 60.1163H62.8009V63.093H59.8241V60.1163ZM12.1962 15.4651H15.173V18.4419H12.1962V15.4651ZM15.173 12.4884H18.1497V15.4651H15.173V12.4884ZM12.1962 18.4419H15.173V21.4186H12.1962V18.4419ZM59.8241 6.53488H62.8009V9.51163H59.8241V6.53488ZM44.9404 6.53488H47.9172V9.51163H44.9404V6.53488ZM38.9869 3.55814H41.9637V6.53488H38.9869V3.55814ZM33.0334 9.51163H36.0102V12.4884H33.0334V9.51163ZM36.0102 54.1628H38.9869V57.1395H36.0102V54.1628ZM3.26599 57.1395H6.24273V60.1163H3.26599V57.1395ZM0.289244 54.1628H3.26599V57.1395H0.289244V54.1628ZM3.26599 60.1163H6.24273V63.093H3.26599V60.1163ZM6.24273 63.093H9.21948V66.0698H6.24273V63.093ZM9.21948 66.0698H12.1962V69.0465H9.21948V66.0698ZM21.1265 63.093H24.1032V66.0698H21.1265V63.093ZM12.1962 54.1628H15.173V57.1395H12.1962V54.1628ZM24.1032 0.581398H27.0799V3.55814H24.1032V0.581398ZM53.8706 66.0698H56.8474V69.0465H53.8706V66.0698ZM50.8939 63.093H53.8706V66.0698H50.8939V63.093ZM47.9172 69.0465H50.8939V72.0233H47.9172V69.0465ZM21.1265 72.0233H24.1032V75H21.1265V72.0233ZM24.1032 72.0233H27.0799V75H24.1032V72.0233ZM27.0799 72.0233H30.0567V75H27.0799V72.0233ZM30.0567 72.0233H33.0334V75H30.0567V72.0233ZM33.0334 72.0233H36.0102V75H33.0334V72.0233ZM36.0102 72.0233H38.9869V75H36.0102V72.0233ZM38.9869 72.0233H41.9637V75H38.9869V72.0233ZM41.9637 72.0233H44.9404V75H41.9637V72.0233ZM74.766 6.53488H77.7427V9.51163H74.766V6.53488ZM71.7892 6.53488H74.766V9.51163H71.7892V6.53488ZM71.7892 9.51163H74.766V12.4884H71.7892V9.51163ZM77.7427 3.55814H80.7195V6.53488H77.7427V3.55814ZM77.7427 0.581398H80.7195V3.55814H77.7427V0.581398ZM80.7195 0.581398H83.6962V3.55814H80.7195V0.581398ZM80.7195 3.55814H83.6962V6.53488H80.7195V3.55814ZM83.6962 0.581398H86.673V3.55814H83.6962V0.581398ZM83.6962 3.55814H86.673V6.53488H83.6962V3.55814ZM86.673 3.55814H89.6497V6.53488H86.673V3.55814ZM86.673 0.581398H89.6497V3.55814H86.673V0.581398ZM89.6497 0.581398H92.6265V3.55814H89.6497V0.581398ZM92.6265 0.581398H95.6032V3.55814H92.6265V0.581398ZM92.6265 3.55814H95.6032V6.53488H92.6265V3.55814ZM89.6497 3.55814H92.6265V6.53488H89.6497V3.55814ZM95.6032 0.581398H98.5799V3.55814H95.6032V0.581398ZM98.5799 0.581398H101.557V3.55814H98.5799V0.581398ZM98.5799 3.55814H101.557V6.53488H98.5799V3.55814ZM98.5799 6.53488H101.557V9.51163H98.5799V6.53488ZM95.6032 6.53488H98.5799V9.51163H95.6032V6.53488ZM95.6032 3.55814H98.5799V6.53488H95.6032V3.55814ZM98.5799 9.51163H101.557V12.4884H98.5799V9.51163ZM101.557 0.581398H104.533V3.55814H101.557V0.581398ZM101.557 3.55814H104.533V6.53488H101.557V3.55814ZM101.557 6.53488H104.533V9.51163H101.557V6.53488ZM101.557 9.51163H104.533V12.4884H101.557V9.51163ZM104.533 9.51163H107.51V12.4884H104.533V9.51163ZM104.533 6.53488H107.51V9.51163H104.533V6.53488ZM104.533 3.55814H107.51V6.53488H104.533V3.55814ZM107.51 6.53488H110.487V9.51163H107.51V6.53488ZM107.51 9.51163H110.487V12.4884H107.51V9.51163ZM110.487 6.53488H113.464V9.51163H110.487V6.53488ZM113.464 6.53488H116.44V9.51163H113.464V6.53488ZM110.487 9.51163H113.464V12.4884H110.487V9.51163ZM116.44 3.55814H119.417V6.53488H116.44V3.55814ZM116.44 0.581398H119.417V3.55814H116.44V0.581398ZM131.324 0.581398H134.301V3.55814H131.324V0.581398ZM131.324 3.55814H134.301V6.53488H131.324V3.55814ZM128.347 3.55814H131.324V6.53488H128.347V3.55814ZM125.371 6.53488H128.347V9.51163H125.371V6.53488ZM125.371 9.51163H128.347V12.4884H125.371V9.51163ZM122.394 9.51163H125.371V12.4884H122.394V9.51163ZM119.417 12.4884H122.394V15.4651H119.417V12.4884ZM122.394 12.4884H125.371V15.4651H122.394V12.4884ZM125.371 12.4884H128.347V15.4651H125.371V12.4884ZM125.371 15.4651H128.347V18.4419H125.371V15.4651ZM125.371 18.4419H128.347V21.4186H125.371V18.4419ZM125.371 21.4186H128.347V24.3953H125.371V21.4186ZM122.394 21.4186H125.371V24.3953H122.394V21.4186ZM122.394 18.4419H125.371V21.4186H122.394V18.4419ZM122.394 15.4651H125.371V18.4419H122.394V15.4651ZM119.417 15.4651H122.394V18.4419H119.417V15.4651ZM119.417 18.4419H122.394V21.4186H119.417V18.4419ZM119.417 21.4186H122.394V24.3953H119.417V21.4186ZM116.44 21.4186H119.417V24.3953H116.44V21.4186ZM116.44 18.4419H119.417V21.4186H116.44V18.4419ZM116.44 15.4651H119.417V18.4419H116.44V15.4651ZM107.51 18.4419H110.487V21.4186H107.51V18.4419ZM104.533 18.4419H107.51V21.4186H104.533V18.4419ZM104.533 21.4186H107.51V24.3953H104.533V21.4186ZM107.51 21.4186H110.487V24.3953H107.51V21.4186ZM104.533 24.3953H107.51V27.3721H104.533V24.3953ZM104.533 27.3721H107.51V30.3488H104.533V27.3721ZM104.533 30.3488H107.51V33.3256H104.533V30.3488ZM104.533 33.3256H107.51V36.3023H104.533V33.3256ZM104.533 39.2791H107.51V42.2558H104.533V39.2791ZM104.533 45.2326H107.51V48.2093H104.533V45.2326ZM104.533 48.2093H107.51V51.186H104.533V48.2093ZM107.51 48.2093H110.487V51.186H107.51V48.2093ZM107.51 45.2326H110.487V48.2093H107.51V45.2326ZM107.51 24.3953H110.487V27.3721H107.51V24.3953ZM107.51 27.3721H110.487V30.3488H107.51V27.3721ZM107.51 30.3488H110.487V33.3256H107.51V30.3488ZM107.51 33.3256H110.487V36.3023H107.51V33.3256ZM107.51 36.3023H110.487V39.2791H107.51V36.3023ZM107.51 39.2791H110.487V42.2558H107.51V39.2791ZM107.51 42.2558H110.487V45.2326H107.51V42.2558ZM104.533 42.2558H107.51V45.2326H104.533V42.2558ZM104.533 36.3023H107.51V39.2791H104.533V36.3023ZM101.557 30.3488H104.533V33.3256H101.557V30.3488ZM98.5799 30.3488H101.557V33.3256H98.5799V30.3488ZM98.5799 33.3256H101.557V36.3023H98.5799V33.3256ZM101.557 33.3256H104.533V36.3023H101.557V33.3256ZM101.557 42.2558H104.533V45.2326H101.557V42.2558ZM98.5799 42.2558H101.557V45.2326H98.5799V42.2558ZM98.5799 45.2326H101.557V48.2093H98.5799V45.2326ZM101.557 45.2326H104.533V48.2093H101.557V45.2326ZM104.533 54.1628H107.51V57.1395H104.533V54.1628ZM107.51 54.1628H110.487V57.1395H107.51V54.1628ZM107.51 57.1395H110.487V60.1163H107.51V57.1395ZM107.51 60.1163H110.487V63.093H107.51V60.1163ZM104.533 60.1163H107.51V63.093H104.533V60.1163ZM104.533 57.1395H107.51V60.1163H104.533V57.1395ZM95.6032 45.2326H98.5799V48.2093H95.6032V45.2326ZM92.6265 45.2326H95.6032V48.2093H92.6265V45.2326ZM92.6265 42.2558H95.6032V45.2326H92.6265V42.2558ZM95.6032 42.2558H98.5799V45.2326H95.6032V42.2558ZM95.6032 33.3256H98.5799V36.3023H95.6032V33.3256ZM95.6032 30.3488H98.5799V33.3256H95.6032V30.3488ZM92.6265 30.3488H95.6032V33.3256H92.6265V30.3488ZM92.6265 33.3256H95.6032V36.3023H92.6265V33.3256ZM119.417 24.3953H122.394V27.3721H119.417V24.3953ZM116.44 24.3953H119.417V27.3721H116.44V24.3953ZM116.44 27.3721H119.417V30.3488H116.44V27.3721ZM116.44 30.3488H119.417V33.3256H116.44V30.3488ZM116.44 33.3256H119.417V36.3023H116.44V33.3256ZM116.44 36.3023H119.417V39.2791H116.44V36.3023ZM116.44 39.2791H119.417V42.2558H116.44V39.2791ZM116.44 42.2558H119.417V45.2326H116.44V42.2558ZM116.44 45.2326H119.417V48.2093H116.44V45.2326ZM116.44 48.2093H119.417V51.186H116.44V48.2093ZM116.44 54.1628H119.417V57.1395H116.44V54.1628ZM116.44 57.1395H119.417V60.1163H116.44V57.1395ZM116.44 60.1163H119.417V63.093H116.44V60.1163ZM119.417 60.1163H122.394V63.093H119.417V60.1163ZM119.417 57.1395H122.394V60.1163H119.417V57.1395ZM119.417 54.1628H122.394V57.1395H119.417V54.1628ZM119.417 48.2093H122.394V51.186H119.417V48.2093ZM119.417 45.2326H122.394V48.2093H119.417V45.2326ZM119.417 42.2558H122.394V45.2326H119.417V42.2558ZM119.417 39.2791H122.394V42.2558H119.417V39.2791ZM119.417 36.3023H122.394V39.2791H119.417V36.3023ZM119.417 33.3256H122.394V36.3023H119.417V33.3256ZM119.417 30.3488H122.394V33.3256H119.417V30.3488ZM119.417 27.3721H122.394V30.3488H119.417V27.3721ZM122.394 24.3953H125.371V27.3721H122.394V24.3953ZM122.394 27.3721H125.371V30.3488H122.394V27.3721ZM122.394 30.3488H125.371V33.3256H122.394V30.3488ZM122.394 33.3256H125.371V36.3023H122.394V33.3256ZM122.394 36.3023H125.371V39.2791H122.394V36.3023ZM122.394 42.2558H125.371V45.2326H122.394V42.2558ZM122.394 45.2326H125.371V48.2093H122.394V45.2326ZM122.394 48.2093H125.371V51.186H122.394V48.2093ZM122.394 54.1628H125.371V57.1395H122.394V54.1628ZM125.371 54.1628H128.347V57.1395H125.371V54.1628ZM125.371 48.2093H128.347V51.186H125.371V48.2093ZM125.371 45.2326H128.347V48.2093H125.371V45.2326ZM125.371 42.2558H128.347V45.2326H125.371V42.2558ZM125.371 39.2791H128.347V42.2558H125.371V39.2791ZM125.371 36.3023H128.347V39.2791H125.371V36.3023ZM125.371 33.3256H128.347V36.3023H125.371V33.3256ZM125.371 30.3488H128.347V33.3256H125.371V30.3488ZM125.371 27.3721H128.347V30.3488H125.371V27.3721ZM125.371 24.3953H128.347V27.3721H125.371V24.3953ZM122.394 39.2791H125.371V42.2558H122.394V39.2791ZM116.44 66.0698H119.417V69.0465H116.44V66.0698ZM116.44 63.093H119.417V66.0698H116.44V63.093ZM119.417 63.093H122.394V66.0698H119.417V63.093ZM125.371 57.1395H128.347V60.1163H125.371V57.1395ZM122.394 57.1395H125.371V60.1163H122.394V57.1395ZM122.394 60.1163H125.371V63.093H122.394V60.1163ZM101.557 63.093H104.533V66.0698H101.557V63.093ZM98.5799 63.093H101.557V66.0698H98.5799V63.093ZM98.5799 66.0698H101.557V69.0465H98.5799V66.0698ZM101.557 66.0698H104.533V69.0465H101.557V66.0698ZM101.557 69.0465H104.533V72.0233H101.557V69.0465ZM98.5799 69.0465H101.557V72.0233H98.5799V69.0465ZM98.5799 72.0233H101.557V75H98.5799V72.0233ZM101.557 72.0233H104.533V75H101.557V72.0233ZM95.6032 63.093H98.5799V66.0698H95.6032V63.093ZM92.6265 63.093H95.6032V66.0698H92.6265V63.093ZM92.6265 66.0698H95.6032V69.0465H92.6265V66.0698ZM89.6497 66.0698H92.6265V69.0465H89.6497V66.0698ZM92.6265 69.0465H95.6032V72.0233H92.6265V69.0465ZM92.6265 72.0233H95.6032V75H92.6265V72.0233ZM95.6032 72.0233H98.5799V75H95.6032V72.0233ZM95.6032 69.0465H98.5799V72.0233H95.6032V69.0465ZM95.6032 66.0698H98.5799V69.0465H95.6032V66.0698ZM89.6497 63.093H92.6265V66.0698H89.6497V63.093ZM86.673 66.0698H89.6497V69.0465H86.673V66.0698ZM86.673 63.093H89.6497V66.0698H86.673V63.093ZM83.6962 63.093H86.673V66.0698H83.6962V63.093ZM77.7427 69.0465H80.7195V72.0233H77.7427V69.0465ZM74.766 69.0465H77.7427V72.0233H74.766V69.0465ZM74.766 72.0233H77.7427V75H74.766V72.0233ZM104.533 51.186H107.51V54.1628H104.533V51.186ZM107.51 51.186H110.487V54.1628H107.51V51.186ZM116.44 51.186H119.417V54.1628H116.44V51.186ZM119.417 51.186H122.394V54.1628H119.417V51.186ZM122.394 51.186H125.371V54.1628H122.394V51.186ZM125.371 51.186H128.347V54.1628H125.371V51.186ZM74.766 3.55814H77.7427V6.53488H74.766V3.55814ZM113.464 3.55814H116.44V6.53488H113.464V3.55814ZM128.347 6.53488H131.324V9.51163H128.347V6.53488ZM113.464 69.0465H116.44V72.0233H113.464V69.0465ZM110.487 69.0465H113.464V72.0233H110.487V69.0465ZM107.51 69.0465H110.487V72.0233H107.51V69.0465ZM104.533 69.0465H107.51V72.0233H104.533V69.0465ZM104.533 72.0233H107.51V75H104.533V72.0233ZM107.51 72.0233H110.487V75H107.51V72.0233ZM110.487 72.0233H113.464V75H110.487V72.0233ZM89.6497 69.0465H92.6265V72.0233H89.6497V69.0465ZM80.7195 66.0698H83.6962V69.0465H80.7195V66.0698ZM77.7427 66.0698H80.7195V69.0465H77.7427V66.0698ZM80.7195 63.093H83.6962V66.0698H80.7195V63.093ZM83.6962 66.0698H86.673V69.0465H83.6962V66.0698ZM104.533 63.093H107.51V66.0698H104.533V63.093ZM113.464 66.0698H116.44V69.0465H113.464V66.0698ZM146.243 12.4884H149.219V15.4651H146.243V12.4884ZM143.266 15.4651H146.243V18.4419H143.266V15.4651ZM149.219 9.51163H152.196V12.4884H149.219V9.51163ZM152.196 6.53488H155.173V9.51163H152.196V6.53488ZM158.15 0.581398H161.126V3.55814H158.15V0.581398ZM158.15 3.55814H161.126V6.53488H158.15V3.55814ZM164.103 0.581398H167.08V3.55814H164.103V0.581398ZM164.103 3.55814H167.08V6.53488H164.103V3.55814ZM161.126 3.55814H164.103V6.53488H161.126V3.55814ZM161.126 0.581398H164.103V3.55814H161.126V0.581398ZM167.08 0.581398H170.057V3.55814H167.08V0.581398ZM170.057 3.55814H173.033V6.53488H170.057V3.55814ZM167.08 3.55814H170.057V6.53488H167.08V3.55814ZM176.01 3.55814H178.987V6.53488H176.01V3.55814ZM173.033 3.55814H176.01V6.53488H173.033V3.55814ZM181.964 6.53488H184.94V9.51163H181.964V6.53488ZM181.964 9.51163H184.94V12.4884H181.964V9.51163ZM181.964 12.4884H184.94V15.4651H181.964V12.4884ZM178.987 9.51163H181.964V12.4884H178.987V9.51163ZM178.987 6.53488H181.964V9.51163H178.987V6.53488ZM178.987 3.55814H181.964V6.53488H178.987V3.55814ZM199.824 3.55814H202.801V6.53488H199.824V3.55814ZM202.801 0.581398H205.778V3.55814H202.801V0.581398ZM205.778 0.581398H208.754V3.55814H205.778V0.581398ZM205.778 3.55814H208.754V6.53488H205.778V3.55814ZM202.801 3.55814H205.778V6.53488H202.801V3.55814ZM211.731 6.53488H214.708V9.51163H211.731V6.53488ZM184.94 9.51163H187.917V12.4884H184.94V9.51163ZM184.94 12.4884H187.917V15.4651H184.94V12.4884ZM187.917 12.4884H190.894V15.4651H187.917V12.4884ZM190.894 12.4884H193.871V15.4651H190.894V12.4884ZM193.871 12.4884H196.847V15.4651H193.871V12.4884ZM193.871 15.4651H196.847V18.4419H193.871V15.4651ZM190.894 15.4651H193.871V18.4419H190.894V15.4651ZM187.917 15.4651H190.894V18.4419H187.917V15.4651ZM173.033 18.4419H176.01V21.4186H173.033V18.4419ZM173.033 21.4186H176.01V24.3953H173.033V21.4186ZM187.917 18.4419H190.894V21.4186H187.917V18.4419ZM190.894 18.4419H193.871V21.4186H190.894V18.4419ZM193.871 18.4419H196.847V21.4186H193.871V18.4419ZM193.871 21.4186H196.847V24.3953H193.871V21.4186ZM190.894 24.3953H193.871V27.3721H190.894V24.3953ZM187.917 24.3953H190.894V27.3721H187.917V24.3953ZM190.894 21.4186H193.871V24.3953H190.894V21.4186ZM187.917 21.4186H190.894V24.3953H187.917V21.4186ZM184.94 27.3721H187.917V30.3488H184.94V27.3721ZM184.94 24.3953H187.917V27.3721H184.94V24.3953ZM187.917 27.3721H190.894V30.3488H187.917V27.3721ZM190.894 27.3721H193.871V30.3488H190.894V27.3721ZM170.057 18.4419H173.033V21.4186H170.057V18.4419ZM170.057 21.4186H173.033V24.3953H170.057V21.4186ZM170.057 24.3953H173.033V27.3721H170.057V24.3953ZM170.057 27.3721H173.033V30.3488H170.057V27.3721ZM173.033 42.2558H176.01V45.2326H173.033V42.2558ZM176.01 42.2558H178.987V45.2326H176.01V42.2558ZM184.94 30.3488H187.917V33.3256H184.94V30.3488ZM184.94 33.3256H187.917V36.3023H184.94V33.3256ZM184.94 36.3023H187.917V39.2791H184.94V36.3023ZM184.94 39.2791H187.917V42.2558H184.94V39.2791ZM187.917 30.3488H190.894V33.3256H187.917V30.3488ZM187.917 33.3256H190.894V36.3023H187.917V33.3256ZM187.917 36.3023H190.894V39.2791H187.917V36.3023ZM187.917 39.2791H190.894V42.2558H187.917V39.2791ZM184.94 45.2326H187.917V48.2093H184.94V45.2326ZM187.917 45.2326H190.894V48.2093H187.917V45.2326ZM190.894 42.2558H193.871V45.2326H190.894V42.2558ZM190.894 39.2791H193.871V42.2558H190.894V39.2791ZM190.894 36.3023H193.871V39.2791H190.894V36.3023ZM190.894 33.3256H193.871V36.3023H190.894V33.3256ZM190.894 30.3488H193.871V33.3256H190.894V30.3488ZM190.894 45.2326H193.871V48.2093H190.894V45.2326ZM193.871 48.2093H196.847V51.186H193.871V48.2093ZM193.871 51.186H196.847V54.1628H193.871V51.186ZM190.894 51.186H193.871V54.1628H190.894V51.186ZM187.917 51.186H190.894V54.1628H187.917V51.186ZM184.94 51.186H187.917V54.1628H184.94V51.186ZM184.94 48.2093H187.917V51.186H184.94V48.2093ZM187.917 48.2093H190.894V51.186H187.917V48.2093ZM190.894 48.2093H193.871V51.186H190.894V48.2093ZM155.173 57.1395H158.15V60.1163H155.173V57.1395ZM152.196 60.1163H155.173V63.093H152.196V60.1163ZM149.219 63.093H152.196V66.0698H149.219V63.093ZM184.94 54.1628H187.917V57.1395H184.94V54.1628ZM187.917 54.1628H190.894V57.1395H187.917V54.1628ZM190.894 54.1628H193.871V57.1395H190.894V54.1628ZM193.871 54.1628H196.847V57.1395H193.871V54.1628ZM152.196 63.093H155.173V66.0698H152.196V63.093ZM155.173 63.093H158.15V66.0698H155.173V63.093ZM155.173 66.0698H158.15V69.0465H155.173V66.0698ZM152.196 66.0698H155.173V69.0465H152.196V66.0698ZM158.15 66.0698H161.126V69.0465H158.15V66.0698ZM173.033 63.093H176.01V66.0698H173.033V63.093ZM173.033 66.0698H176.01V69.0465H173.033V66.0698ZM170.057 66.0698H173.033V69.0465H170.057V66.0698ZM176.01 60.1163H178.987V63.093H176.01V60.1163ZM184.94 57.1395H187.917V60.1163H184.94V57.1395ZM187.917 57.1395H190.894V60.1163H187.917V57.1395ZM190.894 57.1395H193.871V60.1163H190.894V57.1395ZM193.871 57.1395H196.847V60.1163H193.871V57.1395ZM193.871 60.1163H196.847V63.093H193.871V60.1163ZM190.894 60.1163H193.871V63.093H190.894V60.1163ZM187.917 60.1163H190.894V63.093H187.917V60.1163ZM184.94 60.1163H187.917V63.093H184.94V60.1163ZM184.94 63.093H187.917V66.0698H184.94V63.093ZM184.94 66.0698H187.917V69.0465H184.94V66.0698ZM187.917 66.0698H190.894V69.0465H187.917V66.0698ZM190.894 66.0698H193.871V69.0465H190.894V66.0698ZM190.894 63.093H193.871V66.0698H190.894V63.093ZM193.871 63.093H196.847V66.0698H193.871V63.093ZM187.917 63.093H190.894V66.0698H187.917V63.093ZM193.871 66.0698H196.847V69.0465H193.871V66.0698ZM190.894 69.0465H193.871V72.0233H190.894V69.0465ZM190.894 72.0233H193.871V75H190.894V72.0233ZM193.871 72.0233H196.847V75H193.871V72.0233ZM193.871 69.0465H196.847V72.0233H193.871V69.0465ZM199.824 69.0465H202.801V72.0233H199.824V69.0465ZM199.824 72.0233H202.801V75H199.824V72.0233ZM196.847 72.0233H199.824V75H196.847V72.0233ZM205.778 63.093H208.754V66.0698H205.778V63.093ZM205.778 66.0698H208.754V69.0465H205.778V66.0698ZM202.801 66.0698H205.778V69.0465H202.801V66.0698ZM202.801 69.0465H205.778V72.0233H202.801V69.0465ZM187.917 69.0465H190.894V72.0233H187.917V69.0465ZM167.08 69.0465H170.057V72.0233H167.08V69.0465ZM164.103 69.0465H167.08V72.0233H164.103V69.0465ZM164.103 72.0233H167.08V75H164.103V72.0233ZM167.08 72.0233H170.057V75H167.08V72.0233ZM161.126 69.0465H164.103V72.0233H161.126V69.0465ZM158.15 72.0233H161.126V75H158.15V72.0233ZM161.126 72.0233H164.103V75H161.126V72.0233ZM158.15 69.0465H161.126V72.0233H158.15V69.0465ZM170.057 69.0465H173.033V72.0233H170.057V69.0465ZM176.01 63.093H178.987V66.0698H176.01V63.093ZM208.754 3.55814H211.731V6.53488H208.754V3.55814ZM146.243 66.0698H149.219V69.0465H146.243V66.0698ZM155.173 60.1163H158.15V63.093H155.173V60.1163ZM196.847 69.0465H199.824V72.0233H196.847V69.0465ZM143.266 69.0465H146.243V72.0233H143.266V69.0465ZM170.057 39.2791H173.033V42.2558H170.057V39.2791ZM170.057 33.3256H173.033V36.3023H170.057V33.3256ZM170.057 36.3023H173.033V39.2791H170.057V36.3023ZM170.057 30.3488H173.033V33.3256H170.057V30.3488ZM173.033 24.3953H176.01V27.3721H173.033V24.3953ZM173.033 27.3721H176.01V30.3488H173.033V27.3721ZM161.126 51.186H164.103V54.1628H161.126V51.186ZM176.01 6.53488H178.987V9.51163H176.01V6.53488ZM193.871 45.2326H196.847V48.2093H193.871V45.2326ZM155.173 69.0465H158.15V72.0233H155.173V69.0465ZM164.103 15.4651H167.08V18.4419H164.103V15.4651ZM167.08 15.4651H170.057V18.4419H167.08V15.4651ZM170.057 15.4651H173.033V18.4419H170.057V15.4651ZM170.057 0.581398H173.033V3.55814H170.057V0.581398ZM167.08 45.2326H170.057V48.2093H167.08V45.2326ZM208.754 60.1163H211.731V63.093H208.754V60.1163ZM158.15 54.1628H161.126V57.1395H158.15V54.1628ZM164.103 48.2093H167.08V51.186H164.103V48.2093ZM164.103 51.186H167.08V54.1628H164.103V51.186ZM161.126 54.1628H164.103V57.1395H161.126V54.1628ZM158.15 57.1395H161.126V60.1163H158.15V57.1395ZM158.15 60.1163H161.126V63.093H158.15V60.1163ZM170.057 42.2558H173.033V45.2326H170.057V42.2558ZM178.987 42.2558H181.964V45.2326H178.987V42.2558ZM170.057 45.2326H173.033V48.2093H170.057V45.2326ZM173.033 45.2326H176.01V48.2093H173.033V45.2326ZM176.01 45.2326H178.987V48.2093H176.01V45.2326ZM173.033 30.3488H176.01V33.3256H173.033V30.3488ZM208.754 63.093H211.731V66.0698H208.754V63.093ZM196.847 66.0698H199.824V69.0465H196.847V66.0698ZM196.847 6.53488H199.824V9.51163H196.847V6.53488ZM214.708 9.51163H217.685V12.4884H214.708V9.51163ZM173.033 33.3256H176.01V36.3023H173.033V33.3256ZM173.033 36.3023H176.01V39.2791H173.033V36.3023ZM173.033 39.2791H176.01V42.2558H173.033V39.2791ZM187.917 42.2558H190.894V45.2326H187.917V42.2558ZM184.94 42.2558H187.917V45.2326H184.94V42.2558ZM199.824 66.0698H202.801V69.0465H199.824V66.0698ZM161.126 66.0698H164.103V69.0465H161.126V66.0698ZM164.103 66.0698H167.08V69.0465H164.103V66.0698ZM167.08 66.0698H170.057V69.0465H167.08V66.0698ZM140.289 72.0233H143.266V75H140.289V72.0233ZM173.033 0.581398H176.01V3.55814H173.033V0.581398ZM146.243 63.093H149.219V66.0698H146.243V63.093ZM143.266 66.0698H146.243V69.0465H143.266V66.0698ZM140.289 69.0465H143.266V72.0233H140.289V69.0465ZM149.219 66.0698H152.196V69.0465H149.219V66.0698ZM181.964 42.2558H184.94V45.2326H181.964V42.2558ZM178.987 45.2326H181.964V48.2093H178.987V45.2326ZM184.94 15.4651H187.917V18.4419H184.94V15.4651ZM190.894 9.51163H193.871V12.4884H190.894V9.51163ZM193.871 9.51163H196.847V12.4884H193.871V9.51163ZM187.917 9.51163H190.894V12.4884H187.917V9.51163ZM184.94 6.53488H187.917V9.51163H184.94V6.53488ZM173.033 6.53488H176.01V9.51163H173.033V6.53488ZM184.94 18.4419H187.917V21.4186H184.94V18.4419ZM149.219 60.1163H152.196V63.093H149.219V60.1163ZM158.15 63.093H161.126V66.0698H158.15V63.093ZM161.126 63.093H164.103V66.0698H161.126V63.093ZM167.08 12.4884H170.057V15.4651H167.08V12.4884ZM176.01 9.51163H178.987V12.4884H176.01V9.51163ZM178.987 12.4884H181.964V15.4651H178.987V12.4884ZM181.964 15.4651H184.94V18.4419H181.964V15.4651ZM184.94 21.4186H187.917V24.3953H184.94V21.4186ZM176.01 21.4186H178.987V24.3953H176.01V21.4186ZM176.01 24.3953H178.987V27.3721H176.01V24.3953ZM176.01 27.3721H178.987V30.3488H176.01V27.3721ZM176.01 30.3488H178.987V33.3256H176.01V30.3488ZM176.01 33.3256H178.987V36.3023H176.01V33.3256ZM176.01 36.3023H178.987V39.2791H176.01V36.3023ZM176.01 39.2791H178.987V42.2558H176.01V39.2791ZM161.126 18.4419H164.103V21.4186H161.126V18.4419ZM158.15 21.4186H161.126V24.3953H158.15V21.4186ZM155.173 24.3953H158.15V27.3721H155.173V24.3953ZM164.103 18.4419H167.08V21.4186H164.103V18.4419ZM161.126 21.4186H164.103V24.3953H161.126V21.4186ZM158.15 24.3953H161.126V27.3721H158.15V24.3953ZM155.173 27.3721H158.15V30.3488H155.173V27.3721ZM167.08 18.4419H170.057V21.4186H167.08V18.4419ZM167.08 21.4186H170.057V24.3953H167.08V21.4186ZM199.824 6.53488H202.801V9.51163H199.824V6.53488ZM196.847 9.51163H199.824V12.4884H196.847V9.51163ZM208.754 6.53488H211.731V9.51163H208.754V6.53488ZM205.778 6.53488H208.754V9.51163H205.778V6.53488ZM208.754 9.51163H211.731V12.4884H208.754V9.51163ZM211.731 9.51163H214.708V12.4884H211.731V9.51163ZM202.801 6.53488H205.778V9.51163H202.801V6.53488ZM205.778 9.51163H208.754V12.4884H205.778V9.51163ZM208.754 12.4884H211.731V15.4651H208.754V12.4884ZM211.731 12.4884H214.708V15.4651H211.731V12.4884ZM202.801 9.51163H205.778V12.4884H202.801V9.51163ZM205.778 12.4884H208.754V15.4651H205.778V12.4884ZM208.754 15.4651H211.731V18.4419H208.754V15.4651ZM143.266 18.4419H146.243V21.4186H143.266V18.4419ZM146.243 15.4651H149.219V18.4419H146.243V15.4651ZM149.219 12.4884H152.196V15.4651H149.219V12.4884ZM152.196 9.51163H155.173V12.4884H152.196V9.51163ZM155.173 6.53488H158.15V9.51163H155.173V6.53488ZM155.173 3.55814H158.15V6.53488H155.173V3.55814ZM176.01 0.581398H178.987V3.55814H176.01V0.581398ZM181.964 3.55814H184.94V6.53488H181.964V3.55814ZM187.917 6.53488H190.894V9.51163H187.917V6.53488ZM184.94 3.55814H187.917V6.53488H184.94V3.55814ZM181.964 0.581398H184.94V3.55814H181.964V0.581398ZM178.987 0.581398H181.964V3.55814H178.987V0.581398ZM164.103 21.4186H167.08V24.3953H164.103V21.4186ZM167.08 24.3953H170.057V27.3721H167.08V24.3953ZM164.103 24.3953H167.08V27.3721H164.103V24.3953ZM167.08 27.3721H170.057V30.3488H167.08V27.3721ZM170.057 48.2093H173.033V51.186H170.057V48.2093ZM167.08 48.2093H170.057V51.186H167.08V48.2093ZM167.08 51.186H170.057V54.1628H167.08V51.186ZM164.103 54.1628H167.08V57.1395H164.103V54.1628ZM161.126 57.1395H164.103V60.1163H161.126V57.1395ZM193.871 42.2558H196.847V45.2326H193.871V42.2558ZM193.871 39.2791H196.847V42.2558H193.871V39.2791ZM193.871 36.3023H196.847V39.2791H193.871V36.3023ZM193.871 33.3256H196.847V36.3023H193.871V33.3256ZM193.871 30.3488H196.847V33.3256H193.871V30.3488ZM193.871 27.3721H196.847V30.3488H193.871V27.3721ZM193.871 24.3953H196.847V27.3721H193.871V24.3953Z" fill="white"/>
<path d="M0.289244 24.3953H3.26599V27.3721H0.289244V24.3953ZM3.26599 24.3953H6.24273V27.3721H3.26599V24.3953ZM3.26599 27.3721H6.24273V30.3488H3.26599V27.3721ZM6.24273 21.4186H9.21948V24.3953H6.24273V21.4186ZM6.24273 18.4419H9.21948V21.4186H6.24273V18.4419ZM9.21948 18.4419H12.1962V21.4186H9.21948V18.4419ZM9.21948 21.4186H12.1962V24.3953H9.21948V21.4186ZM0.289244 27.3721H3.26599V30.3488H0.289244V27.3721ZM6.24273 24.3953H9.21948V27.3721H6.24273V24.3953ZM9.21948 24.3953H12.1962V27.3721H9.21948V24.3953ZM9.21948 27.3721H12.1962V30.3488H9.21948V27.3721ZM6.24273 27.3721H9.21948V30.3488H6.24273V27.3721ZM6.24273 15.4651H9.21948V18.4419H6.24273V15.4651ZM6.24273 12.4884H9.21948V15.4651H6.24273V12.4884ZM9.21948 12.4884H12.1962V15.4651H9.21948V12.4884ZM9.21948 15.4651H12.1962V18.4419H9.21948V15.4651ZM12.1962 9.51163H15.173V12.4884H12.1962V9.51163ZM12.1962 6.53488H15.173V9.51163H12.1962V6.53488ZM18.1497 0.581398H21.1265V3.55814H18.1497V0.581398ZM21.1265 0.581398H24.1032V3.55814H21.1265V0.581398ZM6.24273 30.3488H9.21948V33.3256H6.24273V30.3488ZM9.21948 30.3488H12.1962V33.3256H9.21948V30.3488ZM9.21948 33.3256H12.1962V36.3023H9.21948V33.3256ZM6.24273 33.3256H9.21948V36.3023H6.24273V33.3256ZM6.24273 36.3023H9.21948V39.2791H6.24273V36.3023ZM9.21948 36.3023H12.1962V39.2791H9.21948V36.3023ZM9.21948 39.2791H12.1962V42.2558H9.21948V39.2791ZM6.24273 39.2791H9.21948V42.2558H6.24273V39.2791ZM6.24273 42.2558H9.21948V45.2326H6.24273V42.2558ZM9.21948 42.2558H12.1962V45.2326H9.21948V42.2558ZM9.21948 45.2326H12.1962V48.2093H9.21948V45.2326ZM6.24273 45.2326H9.21948V48.2093H6.24273V45.2326ZM6.24273 48.2093H9.21948V51.186H6.24273V48.2093ZM9.21948 48.2093H12.1962V51.186H9.21948V48.2093ZM9.21948 51.186H12.1962V54.1628H9.21948V51.186ZM6.24273 51.186H9.21948V54.1628H6.24273V51.186ZM0.289244 30.3488H3.26599V33.3256H0.289244V30.3488ZM3.26599 30.3488H6.24273V33.3256H3.26599V30.3488ZM3.26599 33.3256H6.24273V36.3023H3.26599V33.3256ZM0.289244 33.3256H3.26599V36.3023H0.289244V33.3256ZM0.289244 36.3023H3.26599V39.2791H0.289244V36.3023ZM3.26599 36.3023H6.24273V39.2791H3.26599V36.3023ZM3.26599 39.2791H6.24273V42.2558H3.26599V39.2791ZM0.289244 39.2791H3.26599V42.2558H0.289244V39.2791ZM0.289244 42.2558H3.26599V45.2326H0.289244V42.2558ZM3.26599 42.2558H6.24273V45.2326H3.26599V42.2558ZM3.26599 45.2326H6.24273V48.2093H3.26599V45.2326ZM0.289244 45.2326H3.26599V48.2093H0.289244V45.2326ZM0.289244 48.2093H3.26599V51.186H0.289244V48.2093ZM3.26599 48.2093H6.24273V51.186H3.26599V48.2093ZM3.26599 51.186H6.24273V54.1628H3.26599V51.186ZM0.289244 51.186H3.26599V54.1628H0.289244V51.186ZM18.1497 24.3953H21.1265V27.3721H18.1497V24.3953ZM21.1265 24.3953H24.1032V27.3721H21.1265V24.3953ZM21.1265 27.3721H24.1032V30.3488H21.1265V27.3721ZM18.1497 27.3721H21.1265V30.3488H18.1497V27.3721ZM24.1032 24.3953H27.0799V27.3721H24.1032V24.3953ZM27.0799 27.3721H30.0567V30.3488H27.0799V27.3721ZM24.1032 27.3721H27.0799V30.3488H24.1032V27.3721ZM27.0799 24.3953H30.0567V27.3721H27.0799V24.3953ZM21.1265 36.3023H24.1032V39.2791H21.1265V36.3023ZM18.1497 36.3023H21.1265V39.2791H18.1497V36.3023ZM18.1497 39.2791H21.1265V42.2558H18.1497V39.2791ZM21.1265 39.2791H24.1032V42.2558H21.1265V39.2791ZM27.0799 36.3023H30.0567V39.2791H27.0799V36.3023ZM24.1032 36.3023H27.0799V39.2791H24.1032V36.3023ZM27.0799 39.2791H30.0567V42.2558H27.0799V39.2791ZM24.1032 39.2791H27.0799V42.2558H24.1032V39.2791ZM30.0567 24.3953H33.0334V27.3721H30.0567V24.3953ZM33.0334 24.3953H36.0102V27.3721H33.0334V24.3953ZM33.0334 27.3721H36.0102V30.3488H33.0334V27.3721ZM33.0334 30.3488H36.0102V33.3256H33.0334V30.3488ZM33.0334 33.3256H36.0102V36.3023H33.0334V33.3256ZM33.0334 36.3023H36.0102V39.2791H33.0334V36.3023ZM33.0334 39.2791H36.0102V42.2558H33.0334V39.2791ZM30.0567 39.2791H33.0334V42.2558H30.0567V39.2791ZM30.0567 36.3023H33.0334V39.2791H30.0567V36.3023ZM30.0567 33.3256H33.0334V36.3023H30.0567V33.3256ZM30.0567 30.3488H33.0334V33.3256H30.0567V30.3488ZM30.0567 27.3721H33.0334V30.3488H30.0567V27.3721ZM30.0567 21.4186H33.0334V24.3953H30.0567V21.4186ZM30.0567 18.4419H33.0334V21.4186H30.0567V18.4419ZM33.0334 18.4419H36.0102V21.4186H33.0334V18.4419ZM33.0334 21.4186H36.0102V24.3953H33.0334V21.4186ZM33.0334 15.4651H36.0102V18.4419H33.0334V15.4651ZM33.0334 12.4884H36.0102V15.4651H33.0334V12.4884ZM30.0567 12.4884H33.0334V15.4651H30.0567V12.4884ZM30.0567 15.4651H33.0334V18.4419H30.0567V15.4651ZM30.0567 42.2558H33.0334V45.2326H30.0567V42.2558ZM33.0334 42.2558H36.0102V45.2326H33.0334V42.2558ZM33.0334 45.2326H36.0102V48.2093H33.0334V45.2326ZM30.0567 45.2326H33.0334V48.2093H30.0567V45.2326ZM30.0567 48.2093H33.0334V51.186H30.0567V48.2093ZM33.0334 48.2093H36.0102V51.186H33.0334V48.2093ZM33.0334 51.186H36.0102V54.1628H33.0334V51.186ZM30.0567 51.186H33.0334V54.1628H30.0567V51.186ZM36.0102 9.51163H38.9869V12.4884H36.0102V9.51163ZM36.0102 6.53488H38.9869V9.51163H36.0102V6.53488ZM38.9869 6.53488H41.9637V9.51163H38.9869V6.53488ZM38.9869 9.51163H41.9637V12.4884H38.9869V9.51163ZM38.9869 12.4884H41.9637V15.4651H38.9869V12.4884ZM36.0102 12.4884H38.9869V15.4651H36.0102V12.4884ZM36.0102 15.4651H38.9869V18.4419H36.0102V15.4651ZM36.0102 18.4419H38.9869V21.4186H36.0102V18.4419ZM38.9869 15.4651H41.9637V18.4419H38.9869V15.4651ZM38.9869 18.4419H41.9637V21.4186H38.9869V18.4419ZM38.9869 21.4186H41.9637V24.3953H38.9869V21.4186ZM38.9869 24.3953H41.9637V27.3721H38.9869V24.3953ZM36.0102 27.3721H38.9869V30.3488H36.0102V27.3721ZM36.0102 30.3488H38.9869V33.3256H36.0102V30.3488ZM36.0102 33.3256H38.9869V36.3023H36.0102V33.3256ZM36.0102 21.4186H38.9869V24.3953H36.0102V21.4186ZM36.0102 24.3953H38.9869V27.3721H36.0102V24.3953ZM38.9869 27.3721H41.9637V30.3488H38.9869V27.3721ZM38.9869 30.3488H41.9637V33.3256H38.9869V30.3488ZM38.9869 33.3256H41.9637V36.3023H38.9869V33.3256ZM36.0102 36.3023H38.9869V39.2791H36.0102V36.3023ZM36.0102 39.2791H38.9869V42.2558H36.0102V39.2791ZM38.9869 39.2791H41.9637V42.2558H38.9869V39.2791ZM38.9869 36.3023H41.9637V39.2791H38.9869V36.3023ZM38.9869 42.2558H41.9637V45.2326H38.9869V42.2558ZM38.9869 45.2326H41.9637V48.2093H38.9869V45.2326ZM36.0102 45.2326H38.9869V48.2093H36.0102V45.2326ZM36.0102 42.2558H38.9869V45.2326H36.0102V42.2558ZM36.0102 48.2093H38.9869V51.186H36.0102V48.2093ZM38.9869 48.2093H41.9637V51.186H38.9869V48.2093ZM38.9869 51.186H41.9637V54.1628H38.9869V51.186ZM36.0102 51.186H38.9869V54.1628H36.0102V51.186ZM33.0334 54.1628H36.0102V57.1395H33.0334V54.1628ZM30.0567 54.1628H33.0334V57.1395H30.0567V54.1628ZM30.0567 57.1395H33.0334V60.1163H30.0567V57.1395ZM33.0334 57.1395H36.0102V60.1163H33.0334V57.1395ZM27.0799 57.1395H30.0567V60.1163H27.0799V57.1395ZM24.1032 57.1395H27.0799V60.1163H24.1032V57.1395ZM27.0799 54.1628H30.0567V57.1395H27.0799V54.1628ZM9.21948 54.1628H12.1962V57.1395H9.21948V54.1628ZM6.24273 54.1628H9.21948V57.1395H6.24273V54.1628ZM6.24273 57.1395H9.21948V60.1163H6.24273V57.1395ZM9.21948 57.1395H12.1962V60.1163H9.21948V57.1395ZM21.1265 3.55814H24.1032V6.53488H21.1265V3.55814ZM18.1497 3.55814H21.1265V6.53488H18.1497V3.55814ZM15.173 6.53488H18.1497V9.51163H15.173V6.53488ZM15.173 9.51163H18.1497V12.4884H15.173V9.51163ZM12.1962 57.1395H15.173V60.1163H12.1962V57.1395ZM6.24273 60.1163H9.21948V63.093H6.24273V60.1163ZM9.21948 60.1163H12.1962V63.093H9.21948V60.1163ZM12.1962 60.1163H15.173V63.093H12.1962V60.1163ZM15.173 60.1163H18.1497V63.093H15.173V60.1163ZM18.1497 63.093H21.1265V66.0698H18.1497V63.093ZM15.173 63.093H18.1497V66.0698H15.173V63.093ZM12.1962 63.093H15.173V66.0698H12.1962V63.093ZM9.21948 63.093H12.1962V66.0698H9.21948V63.093ZM18.1497 66.0698H21.1265V69.0465H18.1497V66.0698ZM21.1265 66.0698H24.1032V69.0465H21.1265V66.0698ZM21.1265 69.0465H24.1032V72.0233H21.1265V69.0465ZM18.1497 69.0465H21.1265V72.0233H18.1497V69.0465ZM24.1032 66.0698H27.0799V69.0465H24.1032V66.0698ZM27.0799 66.0698H30.0567V69.0465H27.0799V66.0698ZM27.0799 69.0465H30.0567V72.0233H27.0799V69.0465ZM24.1032 69.0465H27.0799V72.0233H24.1032V69.0465ZM30.0567 66.0698H33.0334V69.0465H30.0567V66.0698ZM33.0334 66.0698H36.0102V69.0465H33.0334V66.0698ZM33.0334 69.0465H36.0102V72.0233H33.0334V69.0465ZM30.0567 69.0465H33.0334V72.0233H30.0567V69.0465ZM36.0102 66.0698H38.9869V69.0465H36.0102V66.0698ZM38.9869 66.0698H41.9637V69.0465H38.9869V66.0698ZM38.9869 69.0465H41.9637V72.0233H38.9869V69.0465ZM36.0102 69.0465H38.9869V72.0233H36.0102V69.0465ZM41.9637 66.0698H44.9404V69.0465H41.9637V66.0698ZM44.9404 66.0698H47.9172V69.0465H44.9404V66.0698ZM44.9404 69.0465H47.9172V72.0233H44.9404V69.0465ZM41.9637 69.0465H44.9404V72.0233H41.9637V69.0465ZM47.9172 66.0698H50.8939V69.0465H47.9172V66.0698ZM50.8939 66.0698H53.8706V69.0465H50.8939V66.0698ZM47.9172 51.186H50.8939V54.1628H47.9172V51.186ZM50.8939 51.186H53.8706V54.1628H50.8939V51.186ZM50.8939 48.2093H53.8706V51.186H50.8939V48.2093ZM47.9172 48.2093H50.8939V51.186H47.9172V48.2093ZM47.9172 45.2326H50.8939V48.2093H47.9172V45.2326ZM47.9172 42.2558H50.8939V45.2326H47.9172V42.2558ZM47.9172 39.2791H50.8939V42.2558H47.9172V39.2791ZM47.9172 36.3023H50.8939V39.2791H47.9172V36.3023ZM50.8939 36.3023H53.8706V39.2791H50.8939V36.3023ZM50.8939 33.3256H53.8706V36.3023H50.8939V33.3256ZM50.8939 39.2791H53.8706V42.2558H50.8939V39.2791ZM50.8939 42.2558H53.8706V45.2326H50.8939V42.2558ZM50.8939 45.2326H53.8706V48.2093H50.8939V45.2326ZM47.9172 33.3256H50.8939V36.3023H47.9172V33.3256ZM47.9172 30.3488H50.8939V33.3256H47.9172V30.3488ZM47.9172 27.3721H50.8939V30.3488H47.9172V27.3721ZM47.9172 24.3953H50.8939V27.3721H47.9172V24.3953ZM50.8939 24.3953H53.8706V27.3721H50.8939V24.3953ZM50.8939 27.3721H53.8706V30.3488H50.8939V27.3721ZM50.8939 30.3488H53.8706V33.3256H50.8939V30.3488ZM47.9172 21.4186H50.8939V24.3953H47.9172V21.4186ZM47.9172 18.4419H50.8939V21.4186H47.9172V18.4419ZM50.8939 18.4419H53.8706V21.4186H50.8939V18.4419ZM50.8939 21.4186H53.8706V24.3953H50.8939V21.4186ZM41.9637 3.55814H44.9404V6.53488H41.9637V3.55814ZM41.9637 0.581398H44.9404V3.55814H41.9637V0.581398ZM44.9404 0.581398H47.9172V3.55814H44.9404V0.581398ZM44.9404 3.55814H47.9172V6.53488H44.9404V3.55814ZM50.8939 3.55814H53.8706V6.53488H50.8939V3.55814ZM47.9172 3.55814H50.8939V6.53488H47.9172V3.55814ZM47.9172 0.581398H50.8939V3.55814H47.9172V0.581398ZM50.8939 6.53488H53.8706V9.51163H50.8939V6.53488ZM47.9172 6.53488H50.8939V9.51163H47.9172V6.53488ZM47.9172 9.51163H50.8939V12.4884H47.9172V9.51163ZM50.8939 9.51163H53.8706V12.4884H50.8939V9.51163ZM53.8706 6.53488H56.8474V9.51163H53.8706V6.53488ZM56.8474 6.53488H59.8241V9.51163H56.8474V6.53488ZM56.8474 9.51163H59.8241V12.4884H56.8474V9.51163ZM53.8706 9.51163H56.8474V12.4884H53.8706V9.51163ZM59.8241 3.55814H62.8009V6.53488H59.8241V3.55814ZM62.8009 0.581398H65.7776V3.55814H62.8009V0.581398ZM62.8009 3.55814H65.7776V6.53488H62.8009V3.55814ZM53.8706 63.093H56.8474V66.0698H53.8706V63.093ZM56.8474 60.1163H59.8241V63.093H56.8474V60.1163ZM56.8474 63.093H59.8241V66.0698H56.8474V63.093ZM59.8241 57.1395H62.8009V60.1163H59.8241V57.1395ZM15.173 3.55814H18.1497V6.53488H15.173V3.55814ZM18.1497 6.53488H21.1265V9.51163H18.1497V6.53488ZM9.21948 9.51163H12.1962V12.4884H9.21948V9.51163ZM12.1962 12.4884H15.173V15.4651H12.1962V12.4884ZM3.26599 18.4419H6.24273V21.4186H3.26599V18.4419ZM3.26599 21.4186H6.24273V24.3953H3.26599V21.4186ZM15.173 66.0698H18.1497V69.0465H15.173V66.0698ZM3.26599 54.1628H6.24273V57.1395H3.26599V54.1628ZM12.1962 66.0698H15.173V69.0465H12.1962V66.0698ZM15.173 69.0465H18.1497V72.0233H15.173V69.0465ZM59.8241 60.1163H62.8009V63.093H59.8241V60.1163ZM12.1962 15.4651H15.173V18.4419H12.1962V15.4651ZM15.173 12.4884H18.1497V15.4651H15.173V12.4884ZM12.1962 18.4419H15.173V21.4186H12.1962V18.4419ZM59.8241 6.53488H62.8009V9.51163H59.8241V6.53488ZM44.9404 6.53488H47.9172V9.51163H44.9404V6.53488ZM38.9869 3.55814H41.9637V6.53488H38.9869V3.55814ZM33.0334 9.51163H36.0102V12.4884H33.0334V9.51163ZM36.0102 54.1628H38.9869V57.1395H36.0102V54.1628ZM3.26599 57.1395H6.24273V60.1163H3.26599V57.1395ZM0.289244 54.1628H3.26599V57.1395H0.289244V54.1628ZM3.26599 60.1163H6.24273V63.093H3.26599V60.1163ZM6.24273 63.093H9.21948V66.0698H6.24273V63.093ZM9.21948 66.0698H12.1962V69.0465H9.21948V66.0698ZM21.1265 63.093H24.1032V66.0698H21.1265V63.093ZM12.1962 54.1628H15.173V57.1395H12.1962V54.1628ZM24.1032 0.581398H27.0799V3.55814H24.1032V0.581398ZM53.8706 66.0698H56.8474V69.0465H53.8706V66.0698ZM50.8939 63.093H53.8706V66.0698H50.8939V63.093ZM47.9172 69.0465H50.8939V72.0233H47.9172V69.0465ZM21.1265 72.0233H24.1032V75H21.1265V72.0233ZM24.1032 72.0233H27.0799V75H24.1032V72.0233ZM27.0799 72.0233H30.0567V75H27.0799V72.0233ZM30.0567 72.0233H33.0334V75H30.0567V72.0233ZM33.0334 72.0233H36.0102V75H33.0334V72.0233ZM36.0102 72.0233H38.9869V75H36.0102V72.0233ZM38.9869 72.0233H41.9637V75H38.9869V72.0233ZM41.9637 72.0233H44.9404V75H41.9637V72.0233ZM74.766 6.53488H77.7427V9.51163H74.766V6.53488ZM71.7892 6.53488H74.766V9.51163H71.7892V6.53488ZM71.7892 9.51163H74.766V12.4884H71.7892V9.51163ZM77.7427 3.55814H80.7195V6.53488H77.7427V3.55814ZM77.7427 0.581398H80.7195V3.55814H77.7427V0.581398ZM80.7195 0.581398H83.6962V3.55814H80.7195V0.581398ZM80.7195 3.55814H83.6962V6.53488H80.7195V3.55814ZM83.6962 0.581398H86.673V3.55814H83.6962V0.581398ZM83.6962 3.55814H86.673V6.53488H83.6962V3.55814ZM86.673 3.55814H89.6497V6.53488H86.673V3.55814ZM86.673 0.581398H89.6497V3.55814H86.673V0.581398ZM89.6497 0.581398H92.6265V3.55814H89.6497V0.581398ZM92.6265 0.581398H95.6032V3.55814H92.6265V0.581398ZM92.6265 3.55814H95.6032V6.53488H92.6265V3.55814ZM89.6497 3.55814H92.6265V6.53488H89.6497V3.55814ZM95.6032 0.581398H98.5799V3.55814H95.6032V0.581398ZM98.5799 0.581398H101.557V3.55814H98.5799V0.581398ZM98.5799 3.55814H101.557V6.53488H98.5799V3.55814ZM98.5799 6.53488H101.557V9.51163H98.5799V6.53488ZM95.6032 6.53488H98.5799V9.51163H95.6032V6.53488ZM95.6032 3.55814H98.5799V6.53488H95.6032V3.55814ZM98.5799 9.51163H101.557V12.4884H98.5799V9.51163ZM101.557 0.581398H104.533V3.55814H101.557V0.581398ZM101.557 3.55814H104.533V6.53488H101.557V3.55814ZM101.557 6.53488H104.533V9.51163H101.557V6.53488ZM101.557 9.51163H104.533V12.4884H101.557V9.51163ZM104.533 9.51163H107.51V12.4884H104.533V9.51163ZM104.533 6.53488H107.51V9.51163H104.533V6.53488ZM104.533 3.55814H107.51V6.53488H104.533V3.55814ZM107.51 6.53488H110.487V9.51163H107.51V6.53488ZM107.51 9.51163H110.487V12.4884H107.51V9.51163ZM110.487 6.53488H113.464V9.51163H110.487V6.53488ZM113.464 6.53488H116.44V9.51163H113.464V6.53488ZM110.487 9.51163H113.464V12.4884H110.487V9.51163ZM116.44 3.55814H119.417V6.53488H116.44V3.55814ZM116.44 0.581398H119.417V3.55814H116.44V0.581398ZM131.324 0.581398H134.301V3.55814H131.324V0.581398ZM131.324 3.55814H134.301V6.53488H131.324V3.55814ZM128.347 3.55814H131.324V6.53488H128.347V3.55814ZM125.371 6.53488H128.347V9.51163H125.371V6.53488ZM125.371 9.51163H128.347V12.4884H125.371V9.51163ZM122.394 9.51163H125.371V12.4884H122.394V9.51163ZM119.417 12.4884H122.394V15.4651H119.417V12.4884ZM122.394 12.4884H125.371V15.4651H122.394V12.4884ZM125.371 12.4884H128.347V15.4651H125.371V12.4884ZM125.371 15.4651H128.347V18.4419H125.371V15.4651ZM125.371 18.4419H128.347V21.4186H125.371V18.4419ZM125.371 21.4186H128.347V24.3953H125.371V21.4186ZM122.394 21.4186H125.371V24.3953H122.394V21.4186ZM122.394 18.4419H125.371V21.4186H122.394V18.4419ZM122.394 15.4651H125.371V18.4419H122.394V15.4651ZM119.417 15.4651H122.394V18.4419H119.417V15.4651ZM119.417 18.4419H122.394V21.4186H119.417V18.4419ZM119.417 21.4186H122.394V24.3953H119.417V21.4186ZM116.44 21.4186H119.417V24.3953H116.44V21.4186ZM116.44 18.4419H119.417V21.4186H116.44V18.4419ZM116.44 15.4651H119.417V18.4419H116.44V15.4651ZM107.51 18.4419H110.487V21.4186H107.51V18.4419ZM104.533 18.4419H107.51V21.4186H104.533V18.4419ZM104.533 21.4186H107.51V24.3953H104.533V21.4186ZM107.51 21.4186H110.487V24.3953H107.51V21.4186ZM104.533 24.3953H107.51V27.3721H104.533V24.3953ZM104.533 27.3721H107.51V30.3488H104.533V27.3721ZM104.533 30.3488H107.51V33.3256H104.533V30.3488ZM104.533 33.3256H107.51V36.3023H104.533V33.3256ZM104.533 39.2791H107.51V42.2558H104.533V39.2791ZM104.533 45.2326H107.51V48.2093H104.533V45.2326ZM104.533 48.2093H107.51V51.186H104.533V48.2093ZM107.51 48.2093H110.487V51.186H107.51V48.2093ZM107.51 45.2326H110.487V48.2093H107.51V45.2326ZM107.51 24.3953H110.487V27.3721H107.51V24.3953ZM107.51 27.3721H110.487V30.3488H107.51V27.3721ZM107.51 30.3488H110.487V33.3256H107.51V30.3488ZM107.51 33.3256H110.487V36.3023H107.51V33.3256ZM107.51 36.3023H110.487V39.2791H107.51V36.3023ZM107.51 39.2791H110.487V42.2558H107.51V39.2791ZM107.51 42.2558H110.487V45.2326H107.51V42.2558ZM104.533 42.2558H107.51V45.2326H104.533V42.2558ZM104.533 36.3023H107.51V39.2791H104.533V36.3023ZM101.557 30.3488H104.533V33.3256H101.557V30.3488ZM98.5799 30.3488H101.557V33.3256H98.5799V30.3488ZM98.5799 33.3256H101.557V36.3023H98.5799V33.3256ZM101.557 33.3256H104.533V36.3023H101.557V33.3256ZM101.557 42.2558H104.533V45.2326H101.557V42.2558ZM98.5799 42.2558H101.557V45.2326H98.5799V42.2558ZM98.5799 45.2326H101.557V48.2093H98.5799V45.2326ZM101.557 45.2326H104.533V48.2093H101.557V45.2326ZM104.533 54.1628H107.51V57.1395H104.533V54.1628ZM107.51 54.1628H110.487V57.1395H107.51V54.1628ZM107.51 57.1395H110.487V60.1163H107.51V57.1395ZM107.51 60.1163H110.487V63.093H107.51V60.1163ZM104.533 60.1163H107.51V63.093H104.533V60.1163ZM104.533 57.1395H107.51V60.1163H104.533V57.1395ZM95.6032 45.2326H98.5799V48.2093H95.6032V45.2326ZM92.6265 45.2326H95.6032V48.2093H92.6265V45.2326ZM92.6265 42.2558H95.6032V45.2326H92.6265V42.2558ZM95.6032 42.2558H98.5799V45.2326H95.6032V42.2558ZM95.6032 33.3256H98.5799V36.3023H95.6032V33.3256ZM95.6032 30.3488H98.5799V33.3256H95.6032V30.3488ZM92.6265 30.3488H95.6032V33.3256H92.6265V30.3488ZM92.6265 33.3256H95.6032V36.3023H92.6265V33.3256ZM119.417 24.3953H122.394V27.3721H119.417V24.3953ZM116.44 24.3953H119.417V27.3721H116.44V24.3953ZM116.44 27.3721H119.417V30.3488H116.44V27.3721ZM116.44 30.3488H119.417V33.3256H116.44V30.3488ZM116.44 33.3256H119.417V36.3023H116.44V33.3256ZM116.44 36.3023H119.417V39.2791H116.44V36.3023ZM116.44 39.2791H119.417V42.2558H116.44V39.2791ZM116.44 42.2558H119.417V45.2326H116.44V42.2558ZM116.44 45.2326H119.417V48.2093H116.44V45.2326ZM116.44 48.2093H119.417V51.186H116.44V48.2093ZM116.44 54.1628H119.417V57.1395H116.44V54.1628ZM116.44 57.1395H119.417V60.1163H116.44V57.1395ZM116.44 60.1163H119.417V63.093H116.44V60.1163ZM119.417 60.1163H122.394V63.093H119.417V60.1163ZM119.417 57.1395H122.394V60.1163H119.417V57.1395ZM119.417 54.1628H122.394V57.1395H119.417V54.1628ZM119.417 48.2093H122.394V51.186H119.417V48.2093ZM119.417 45.2326H122.394V48.2093H119.417V45.2326ZM119.417 42.2558H122.394V45.2326H119.417V42.2558ZM119.417 39.2791H122.394V42.2558H119.417V39.2791ZM119.417 36.3023H122.394V39.2791H119.417V36.3023ZM119.417 33.3256H122.394V36.3023H119.417V33.3256ZM119.417 30.3488H122.394V33.3256H119.417V30.3488ZM119.417 27.3721H122.394V30.3488H119.417V27.3721ZM122.394 24.3953H125.371V27.3721H122.394V24.3953ZM122.394 27.3721H125.371V30.3488H122.394V27.3721ZM122.394 30.3488H125.371V33.3256H122.394V30.3488ZM122.394 33.3256H125.371V36.3023H122.394V33.3256ZM122.394 36.3023H125.371V39.2791H122.394V36.3023ZM122.394 42.2558H125.371V45.2326H122.394V42.2558ZM122.394 45.2326H125.371V48.2093H122.394V45.2326ZM122.394 48.2093H125.371V51.186H122.394V48.2093ZM122.394 54.1628H125.371V57.1395H122.394V54.1628ZM125.371 54.1628H128.347V57.1395H125.371V54.1628ZM125.371 48.2093H128.347V51.186H125.371V48.2093ZM125.371 45.2326H128.347V48.2093H125.371V45.2326ZM125.371 42.2558H128.347V45.2326H125.371V42.2558ZM125.371 39.2791H128.347V42.2558H125.371V39.2791ZM125.371 36.3023H128.347V39.2791H125.371V36.3023ZM125.371 33.3256H128.347V36.3023H125.371V33.3256ZM125.371 30.3488H128.347V33.3256H125.371V30.3488ZM125.371 27.3721H128.347V30.3488H125.371V27.3721ZM125.371 24.3953H128.347V27.3721H125.371V24.3953ZM122.394 39.2791H125.371V42.2558H122.394V39.2791ZM116.44 66.0698H119.417V69.0465H116.44V66.0698ZM116.44 63.093H119.417V66.0698H116.44V63.093ZM119.417 63.093H122.394V66.0698H119.417V63.093ZM125.371 57.1395H128.347V60.1163H125.371V57.1395ZM122.394 57.1395H125.371V60.1163H122.394V57.1395ZM122.394 60.1163H125.371V63.093H122.394V60.1163ZM101.557 63.093H104.533V66.0698H101.557V63.093ZM98.5799 63.093H101.557V66.0698H98.5799V63.093ZM98.5799 66.0698H101.557V69.0465H98.5799V66.0698ZM101.557 66.0698H104.533V69.0465H101.557V66.0698ZM101.557 69.0465H104.533V72.0233H101.557V69.0465ZM98.5799 69.0465H101.557V72.0233H98.5799V69.0465ZM98.5799 72.0233H101.557V75H98.5799V72.0233ZM101.557 72.0233H104.533V75H101.557V72.0233ZM95.6032 63.093H98.5799V66.0698H95.6032V63.093ZM92.6265 63.093H95.6032V66.0698H92.6265V63.093ZM92.6265 66.0698H95.6032V69.0465H92.6265V66.0698ZM89.6497 66.0698H92.6265V69.0465H89.6497V66.0698ZM92.6265 69.0465H95.6032V72.0233H92.6265V69.0465ZM92.6265 72.0233H95.6032V75H92.6265V72.0233ZM95.6032 72.0233H98.5799V75H95.6032V72.0233ZM95.6032 69.0465H98.5799V72.0233H95.6032V69.0465ZM95.6032 66.0698H98.5799V69.0465H95.6032V66.0698ZM89.6497 63.093H92.6265V66.0698H89.6497V63.093ZM86.673 66.0698H89.6497V69.0465H86.673V66.0698ZM86.673 63.093H89.6497V66.0698H86.673V63.093ZM83.6962 63.093H86.673V66.0698H83.6962V63.093ZM77.7427 69.0465H80.7195V72.0233H77.7427V69.0465ZM74.766 69.0465H77.7427V72.0233H74.766V69.0465ZM74.766 72.0233H77.7427V75H74.766V72.0233ZM104.533 51.186H107.51V54.1628H104.533V51.186ZM107.51 51.186H110.487V54.1628H107.51V51.186ZM116.44 51.186H119.417V54.1628H116.44V51.186ZM119.417 51.186H122.394V54.1628H119.417V51.186ZM122.394 51.186H125.371V54.1628H122.394V51.186ZM125.371 51.186H128.347V54.1628H125.371V51.186ZM74.766 3.55814H77.7427V6.53488H74.766V3.55814ZM113.464 3.55814H116.44V6.53488H113.464V3.55814ZM128.347 6.53488H131.324V9.51163H128.347V6.53488ZM113.464 69.0465H116.44V72.0233H113.464V69.0465ZM110.487 69.0465H113.464V72.0233H110.487V69.0465ZM107.51 69.0465H110.487V72.0233H107.51V69.0465ZM104.533 69.0465H107.51V72.0233H104.533V69.0465ZM104.533 72.0233H107.51V75H104.533V72.0233ZM107.51 72.0233H110.487V75H107.51V72.0233ZM110.487 72.0233H113.464V75H110.487V72.0233ZM89.6497 69.0465H92.6265V72.0233H89.6497V69.0465ZM80.7195 66.0698H83.6962V69.0465H80.7195V66.0698ZM77.7427 66.0698H80.7195V69.0465H77.7427V66.0698ZM80.7195 63.093H83.6962V66.0698H80.7195V63.093ZM83.6962 66.0698H86.673V69.0465H83.6962V66.0698ZM104.533 63.093H107.51V66.0698H104.533V63.093ZM113.464 66.0698H116.44V69.0465H113.464V66.0698ZM146.243 12.4884H149.219V15.4651H146.243V12.4884ZM143.266 15.4651H146.243V18.4419H143.266V15.4651ZM149.219 9.51163H152.196V12.4884H149.219V9.51163ZM152.196 6.53488H155.173V9.51163H152.196V6.53488ZM158.15 0.581398H161.126V3.55814H158.15V0.581398ZM158.15 3.55814H161.126V6.53488H158.15V3.55814ZM164.103 0.581398H167.08V3.55814H164.103V0.581398ZM164.103 3.55814H167.08V6.53488H164.103V3.55814ZM161.126 3.55814H164.103V6.53488H161.126V3.55814ZM161.126 0.581398H164.103V3.55814H161.126V0.581398ZM167.08 0.581398H170.057V3.55814H167.08V0.581398ZM170.057 3.55814H173.033V6.53488H170.057V3.55814ZM167.08 3.55814H170.057V6.53488H167.08V3.55814ZM176.01 3.55814H178.987V6.53488H176.01V3.55814ZM173.033 3.55814H176.01V6.53488H173.033V3.55814ZM181.964 6.53488H184.94V9.51163H181.964V6.53488ZM181.964 9.51163H184.94V12.4884H181.964V9.51163ZM181.964 12.4884H184.94V15.4651H181.964V12.4884ZM178.987 9.51163H181.964V12.4884H178.987V9.51163ZM178.987 6.53488H181.964V9.51163H178.987V6.53488ZM178.987 3.55814H181.964V6.53488H178.987V3.55814ZM199.824 3.55814H202.801V6.53488H199.824V3.55814ZM202.801 0.581398H205.778V3.55814H202.801V0.581398ZM205.778 0.581398H208.754V3.55814H205.778V0.581398ZM205.778 3.55814H208.754V6.53488H205.778V3.55814ZM202.801 3.55814H205.778V6.53488H202.801V3.55814ZM211.731 6.53488H214.708V9.51163H211.731V6.53488ZM184.94 9.51163H187.917V12.4884H184.94V9.51163ZM184.94 12.4884H187.917V15.4651H184.94V12.4884ZM187.917 12.4884H190.894V15.4651H187.917V12.4884ZM190.894 12.4884H193.871V15.4651H190.894V12.4884ZM193.871 12.4884H196.847V15.4651H193.871V12.4884ZM193.871 15.4651H196.847V18.4419H193.871V15.4651ZM190.894 15.4651H193.871V18.4419H190.894V15.4651ZM187.917 15.4651H190.894V18.4419H187.917V15.4651ZM173.033 18.4419H176.01V21.4186H173.033V18.4419ZM173.033 21.4186H176.01V24.3953H173.033V21.4186ZM187.917 18.4419H190.894V21.4186H187.917V18.4419ZM190.894 18.4419H193.871V21.4186H190.894V18.4419ZM193.871 18.4419H196.847V21.4186H193.871V18.4419ZM193.871 21.4186H196.847V24.3953H193.871V21.4186ZM190.894 24.3953H193.871V27.3721H190.894V24.3953ZM187.917 24.3953H190.894V27.3721H187.917V24.3953ZM190.894 21.4186H193.871V24.3953H190.894V21.4186ZM187.917 21.4186H190.894V24.3953H187.917V21.4186ZM184.94 27.3721H187.917V30.3488H184.94V27.3721ZM184.94 24.3953H187.917V27.3721H184.94V24.3953ZM187.917 27.3721H190.894V30.3488H187.917V27.3721ZM190.894 27.3721H193.871V30.3488H190.894V27.3721ZM170.057 18.4419H173.033V21.4186H170.057V18.4419ZM170.057 21.4186H173.033V24.3953H170.057V21.4186ZM170.057 24.3953H173.033V27.3721H170.057V24.3953ZM170.057 27.3721H173.033V30.3488H170.057V27.3721ZM173.033 42.2558H176.01V45.2326H173.033V42.2558ZM176.01 42.2558H178.987V45.2326H176.01V42.2558ZM184.94 30.3488H187.917V33.3256H184.94V30.3488ZM184.94 33.3256H187.917V36.3023H184.94V33.3256ZM184.94 36.3023H187.917V39.2791H184.94V36.3023ZM184.94 39.2791H187.917V42.2558H184.94V39.2791ZM187.917 30.3488H190.894V33.3256H187.917V30.3488ZM187.917 33.3256H190.894V36.3023H187.917V33.3256ZM187.917 36.3023H190.894V39.2791H187.917V36.3023ZM187.917 39.2791H190.894V42.2558H187.917V39.2791ZM184.94 45.2326H187.917V48.2093H184.94V45.2326ZM187.917 45.2326H190.894V48.2093H187.917V45.2326ZM190.894 42.2558H193.871V45.2326H190.894V42.2558ZM190.894 39.2791H193.871V42.2558H190.894V39.2791ZM190.894 36.3023H193.871V39.2791H190.894V36.3023ZM190.894 33.3256H193.871V36.3023H190.894V33.3256ZM190.894 30.3488H193.871V33.3256H190.894V30.3488ZM190.894 45.2326H193.871V48.2093H190.894V45.2326ZM193.871 48.2093H196.847V51.186H193.871V48.2093ZM193.871 51.186H196.847V54.1628H193.871V51.186ZM190.894 51.186H193.871V54.1628H190.894V51.186ZM187.917 51.186H190.894V54.1628H187.917V51.186ZM184.94 51.186H187.917V54.1628H184.94V51.186ZM184.94 48.2093H187.917V51.186H184.94V48.2093ZM187.917 48.2093H190.894V51.186H187.917V48.2093ZM190.894 48.2093H193.871V51.186H190.894V48.2093ZM155.173 57.1395H158.15V60.1163H155.173V57.1395ZM152.196 60.1163H155.173V63.093H152.196V60.1163ZM149.219 63.093H152.196V66.0698H149.219V63.093ZM184.94 54.1628H187.917V57.1395H184.94V54.1628ZM187.917 54.1628H190.894V57.1395H187.917V54.1628ZM190.894 54.1628H193.871V57.1395H190.894V54.1628ZM193.871 54.1628H196.847V57.1395H193.871V54.1628ZM152.196 63.093H155.173V66.0698H152.196V63.093ZM155.173 63.093H158.15V66.0698H155.173V63.093ZM155.173 66.0698H158.15V69.0465H155.173V66.0698ZM152.196 66.0698H155.173V69.0465H152.196V66.0698ZM158.15 66.0698H161.126V69.0465H158.15V66.0698ZM173.033 63.093H176.01V66.0698H173.033V63.093ZM173.033 66.0698H176.01V69.0465H173.033V66.0698ZM170.057 66.0698H173.033V69.0465H170.057V66.0698ZM176.01 60.1163H178.987V63.093H176.01V60.1163ZM184.94 57.1395H187.917V60.1163H184.94V57.1395ZM187.917 57.1395H190.894V60.1163H187.917V57.1395ZM190.894 57.1395H193.871V60.1163H190.894V57.1395ZM193.871 57.1395H196.847V60.1163H193.871V57.1395ZM193.871 60.1163H196.847V63.093H193.871V60.1163ZM190.894 60.1163H193.871V63.093H190.894V60.1163ZM187.917 60.1163H190.894V63.093H187.917V60.1163ZM184.94 60.1163H187.917V63.093H184.94V60.1163ZM184.94 63.093H187.917V66.0698H184.94V63.093ZM184.94 66.0698H187.917V69.0465H184.94V66.0698ZM187.917 66.0698H190.894V69.0465H187.917V66.0698ZM190.894 66.0698H193.871V69.0465H190.894V66.0698ZM190.894 63.093H193.871V66.0698H190.894V63.093ZM193.871 63.093H196.847V66.0698H193.871V63.093ZM187.917 63.093H190.894V66.0698H187.917V63.093ZM193.871 66.0698H196.847V69.0465H193.871V66.0698ZM190.894 69.0465H193.871V72.0233H190.894V69.0465ZM190.894 72.0233H193.871V75H190.894V72.0233ZM193.871 72.0233H196.847V75H193.871V72.0233ZM193.871 69.0465H196.847V72.0233H193.871V69.0465ZM199.824 69.0465H202.801V72.0233H199.824V69.0465ZM199.824 72.0233H202.801V75H199.824V72.0233ZM196.847 72.0233H199.824V75H196.847V72.0233ZM205.778 63.093H208.754V66.0698H205.778V63.093ZM205.778 66.0698H208.754V69.0465H205.778V66.0698ZM202.801 66.0698H205.778V69.0465H202.801V66.0698ZM202.801 69.0465H205.778V72.0233H202.801V69.0465ZM187.917 69.0465H190.894V72.0233H187.917V69.0465ZM167.08 69.0465H170.057V72.0233H167.08V69.0465ZM164.103 69.0465H167.08V72.0233H164.103V69.0465ZM164.103 72.0233H167.08V75H164.103V72.0233ZM167.08 72.0233H170.057V75H167.08V72.0233ZM161.126 69.0465H164.103V72.0233H161.126V69.0465ZM158.15 72.0233H161.126V75H158.15V72.0233ZM161.126 72.0233H164.103V75H161.126V72.0233ZM158.15 69.0465H161.126V72.0233H158.15V69.0465ZM170.057 69.0465H173.033V72.0233H170.057V69.0465ZM176.01 63.093H178.987V66.0698H176.01V63.093ZM208.754 3.55814H211.731V6.53488H208.754V3.55814ZM146.243 66.0698H149.219V69.0465H146.243V66.0698ZM155.173 60.1163H158.15V63.093H155.173V60.1163ZM196.847 69.0465H199.824V72.0233H196.847V69.0465ZM143.266 69.0465H146.243V72.0233H143.266V69.0465ZM170.057 39.2791H173.033V42.2558H170.057V39.2791ZM170.057 33.3256H173.033V36.3023H170.057V33.3256ZM170.057 36.3023H173.033V39.2791H170.057V36.3023ZM170.057 30.3488H173.033V33.3256H170.057V30.3488ZM173.033 24.3953H176.01V27.3721H173.033V24.3953ZM173.033 27.3721H176.01V30.3488H173.033V27.3721ZM161.126 51.186H164.103V54.1628H161.126V51.186ZM176.01 6.53488H178.987V9.51163H176.01V6.53488ZM193.871 45.2326H196.847V48.2093H193.871V45.2326ZM155.173 69.0465H158.15V72.0233H155.173V69.0465ZM164.103 15.4651H167.08V18.4419H164.103V15.4651ZM167.08 15.4651H170.057V18.4419H167.08V15.4651ZM170.057 15.4651H173.033V18.4419H170.057V15.4651ZM170.057 0.581398H173.033V3.55814H170.057V0.581398ZM167.08 45.2326H170.057V48.2093H167.08V45.2326ZM208.754 60.1163H211.731V63.093H208.754V60.1163ZM158.15 54.1628H161.126V57.1395H158.15V54.1628ZM164.103 48.2093H167.08V51.186H164.103V48.2093ZM164.103 51.186H167.08V54.1628H164.103V51.186ZM161.126 54.1628H164.103V57.1395H161.126V54.1628ZM158.15 57.1395H161.126V60.1163H158.15V57.1395ZM158.15 60.1163H161.126V63.093H158.15V60.1163ZM170.057 42.2558H173.033V45.2326H170.057V42.2558ZM178.987 42.2558H181.964V45.2326H178.987V42.2558ZM170.057 45.2326H173.033V48.2093H170.057V45.2326ZM173.033 45.2326H176.01V48.2093H173.033V45.2326ZM176.01 45.2326H178.987V48.2093H176.01V45.2326ZM173.033 30.3488H176.01V33.3256H173.033V30.3488ZM208.754 63.093H211.731V66.0698H208.754V63.093ZM196.847 66.0698H199.824V69.0465H196.847V66.0698ZM196.847 6.53488H199.824V9.51163H196.847V6.53488ZM214.708 9.51163H217.685V12.4884H214.708V9.51163ZM173.033 33.3256H176.01V36.3023H173.033V33.3256ZM173.033 36.3023H176.01V39.2791H173.033V36.3023ZM173.033 39.2791H176.01V42.2558H173.033V39.2791ZM187.917 42.2558H190.894V45.2326H187.917V42.2558ZM184.94 42.2558H187.917V45.2326H184.94V42.2558ZM199.824 66.0698H202.801V69.0465H199.824V66.0698ZM161.126 66.0698H164.103V69.0465H161.126V66.0698ZM164.103 66.0698H167.08V69.0465H164.103V66.0698ZM167.08 66.0698H170.057V69.0465H167.08V66.0698ZM140.289 72.0233H143.266V75H140.289V72.0233ZM173.033 0.581398H176.01V3.55814H173.033V0.581398ZM146.243 63.093H149.219V66.0698H146.243V63.093ZM143.266 66.0698H146.243V69.0465H143.266V66.0698ZM140.289 69.0465H143.266V72.0233H140.289V69.0465ZM149.219 66.0698H152.196V69.0465H149.219V66.0698ZM181.964 42.2558H184.94V45.2326H181.964V42.2558ZM178.987 45.2326H181.964V48.2093H178.987V45.2326ZM184.94 15.4651H187.917V18.4419H184.94V15.4651ZM190.894 9.51163H193.871V12.4884H190.894V9.51163ZM193.871 9.51163H196.847V12.4884H193.871V9.51163ZM187.917 9.51163H190.894V12.4884H187.917V9.51163ZM184.94 6.53488H187.917V9.51163H184.94V6.53488ZM173.033 6.53488H176.01V9.51163H173.033V6.53488ZM184.94 18.4419H187.917V21.4186H184.94V18.4419ZM149.219 60.1163H152.196V63.093H149.219V60.1163ZM158.15 63.093H161.126V66.0698H158.15V63.093ZM161.126 63.093H164.103V66.0698H161.126V63.093ZM167.08 12.4884H170.057V15.4651H167.08V12.4884ZM176.01 9.51163H178.987V12.4884H176.01V9.51163ZM178.987 12.4884H181.964V15.4651H178.987V12.4884ZM181.964 15.4651H184.94V18.4419H181.964V15.4651ZM184.94 21.4186H187.917V24.3953H184.94V21.4186ZM176.01 21.4186H178.987V24.3953H176.01V21.4186ZM176.01 24.3953H178.987V27.3721H176.01V24.3953ZM176.01 27.3721H178.987V30.3488H176.01V27.3721ZM176.01 30.3488H178.987V33.3256H176.01V30.3488ZM176.01 33.3256H178.987V36.3023H176.01V33.3256ZM176.01 36.3023H178.987V39.2791H176.01V36.3023ZM176.01 39.2791H178.987V42.2558H176.01V39.2791ZM161.126 18.4419H164.103V21.4186H161.126V18.4419ZM158.15 21.4186H161.126V24.3953H158.15V21.4186ZM155.173 24.3953H158.15V27.3721H155.173V24.3953ZM164.103 18.4419H167.08V21.4186H164.103V18.4419ZM161.126 21.4186H164.103V24.3953H161.126V21.4186ZM158.15 24.3953H161.126V27.3721H158.15V24.3953ZM155.173 27.3721H158.15V30.3488H155.173V27.3721ZM167.08 18.4419H170.057V21.4186H167.08V18.4419ZM167.08 21.4186H170.057V24.3953H167.08V21.4186ZM199.824 6.53488H202.801V9.51163H199.824V6.53488ZM196.847 9.51163H199.824V12.4884H196.847V9.51163ZM208.754 6.53488H211.731V9.51163H208.754V6.53488ZM205.778 6.53488H208.754V9.51163H205.778V6.53488ZM208.754 9.51163H211.731V12.4884H208.754V9.51163ZM211.731 9.51163H214.708V12.4884H211.731V9.51163ZM202.801 6.53488H205.778V9.51163H202.801V6.53488ZM205.778 9.51163H208.754V12.4884H205.778V9.51163ZM208.754 12.4884H211.731V15.4651H208.754V12.4884ZM211.731 12.4884H214.708V15.4651H211.731V12.4884ZM202.801 9.51163H205.778V12.4884H202.801V9.51163ZM205.778 12.4884H208.754V15.4651H205.778V12.4884ZM208.754 15.4651H211.731V18.4419H208.754V15.4651ZM143.266 18.4419H146.243V21.4186H143.266V18.4419ZM146.243 15.4651H149.219V18.4419H146.243V15.4651ZM149.219 12.4884H152.196V15.4651H149.219V12.4884ZM152.196 9.51163H155.173V12.4884H152.196V9.51163ZM155.173 6.53488H158.15V9.51163H155.173V6.53488ZM155.173 3.55814H158.15V6.53488H155.173V3.55814ZM176.01 0.581398H178.987V3.55814H176.01V0.581398ZM181.964 3.55814H184.94V6.53488H181.964V3.55814ZM187.917 6.53488H190.894V9.51163H187.917V6.53488ZM184.94 3.55814H187.917V6.53488H184.94V3.55814ZM181.964 0.581398H184.94V3.55814H181.964V0.581398ZM178.987 0.581398H181.964V3.55814H178.987V0.581398ZM164.103 21.4186H167.08V24.3953H164.103V21.4186ZM167.08 24.3953H170.057V27.3721H167.08V24.3953ZM164.103 24.3953H167.08V27.3721H164.103V24.3953ZM167.08 27.3721H170.057V30.3488H167.08V27.3721ZM170.057 48.2093H173.033V51.186H170.057V48.2093ZM167.08 48.2093H170.057V51.186H167.08V48.2093ZM167.08 51.186H170.057V54.1628H167.08V51.186ZM164.103 54.1628H167.08V57.1395H164.103V54.1628ZM161.126 57.1395H164.103V60.1163H161.126V57.1395ZM193.871 42.2558H196.847V45.2326H193.871V42.2558ZM193.871 39.2791H196.847V42.2558H193.871V39.2791ZM193.871 36.3023H196.847V39.2791H193.871V36.3023ZM193.871 33.3256H196.847V36.3023H193.871V33.3256ZM193.871 30.3488H196.847V33.3256H193.871V30.3488ZM193.871 27.3721H196.847V30.3488H193.871V27.3721ZM193.871 24.3953H196.847V27.3721H193.871V24.3953Z" fill="url(#paint0_linear_80_2)"/>
</g>
<defs>
<filter id="filter0_i_80_2" x="0.289307" y="0.581299" width="217.395" height="74.4187" filterUnits="userSpaceOnUse" color-interpolation-filters="sRGB">
<feFlood flood-opacity="0" result="BackgroundImageFix"/>
<feBlend mode="normal" in="SourceGraphic" in2="BackgroundImageFix" result="shape"/>
<feColorMatrix in="SourceAlpha" type="matrix" values="0 0 0 0 0 0 0 0 0 0 0 0 0 0 0 0 0 0 127 0" result="hardAlpha"/>
<feOffset/>
<feGaussianBlur stdDeviation="4"/>
<feComposite in2="hardAlpha" operator="arithmetic" k2="-1" k3="1"/>
<feColorMatrix type="matrix" values="0 0 0 0 0 0 0 0 0 0 0 0 0 0 0 0 0 0 0.5 0"/>
<feBlend mode="normal" in2="shape" result="effect1_innerShadow_80_2"/>
</filter>
<linearGradient id="paint0_linear_80_2" x1="109" y1="-26" x2="109" y2="102" gradientUnits="userSpaceOnUse">
<stop stop-color="#A60069" stop-opacity="0.2"/>
<stop offset="1" stop-color="#000DFF"/>
</linearGradient>
</defs>
</svg>
